<svg width="55" height="54" viewBox="0 0 55 54" fill="none" xmlns="http://www.w3.org/2000/svg">
<path fill-rule="evenodd" clip-rule="evenodd" d="M41.4467 32.4207L40.9265 36.5415L33.7157 35.6311L34.2338 31.5271C32.8385 30.8916 31.6016 29.972 30.5237 28.7676L26.6597 30.4334L23.7255 23.8951L27.6072 22.232C27.565 21.8244 27.5479 21.4033 27.5557 20.9679C27.5658 20.7047 27.5812 20.4422 27.6025 20.1811C27.6211 20.0339 27.6403 19.8818 27.6603 19.7229C27.7702 18.8529 27.9625 18.0267 28.2368 17.2457L24.8881 14.6871L29.3554 9.08298L32.7189 11.6616C34.0479 10.7841 35.4618 10.2047 36.9615 9.92291L37.4796 5.81895L44.6904 6.72936L44.1723 10.8333C44.9463 11.1955 45.6746 11.6438 46.3567 12.1774C46.5586 12.3407 46.7602 12.5095 46.9602 12.6844C47.2645 12.9643 47.5611 13.2599 47.8499 13.572L51.766 11.9125L54.7002 18.4511L50.8012 20.1127C50.8742 20.9258 50.8556 21.7676 50.7458 22.6376C50.6372 23.4973 50.4468 24.3111 50.1739 25.0812L53.5376 27.6591L49.0703 33.2629L45.7067 30.6846C44.3763 31.5731 42.9565 32.152 41.4467 32.4207ZM40.2467 26.4807C40.977 26.3544 41.6619 26.079 42.301 25.6544C42.4032 25.5873 42.4997 25.5195 42.5905 25.4502C43.5102 24.7507 44.1303 23.8755 44.4503 22.8247C44.5478 22.5162 44.6172 22.1971 44.6586 21.869C44.6772 21.7224 44.6894 21.5806 44.695 21.4435C44.7078 21.2496 44.709 21.0542 44.6986 20.858C44.6942 20.8004 44.6906 20.7366 44.6876 20.6673C44.6029 19.6684 44.222 18.742 43.5454 17.8869C43.4747 17.7972 43.3981 17.7075 43.3158 17.6171C42.7922 17.0339 42.1924 16.59 41.5164 16.2868C41.0177 16.0631 40.4741 15.9137 39.8862 15.8395C39.8052 15.8293 39.7189 15.8184 39.6267 15.8068C39.1397 15.7682 38.6627 15.7887 38.196 15.8676C37.4543 15.9918 36.7571 16.2719 36.105 16.7067C36.0144 16.7753 35.9237 16.8439 35.833 16.9131C35.4574 17.1984 35.1305 17.5134 34.8529 17.8576C34.4516 18.3463 34.159 18.901 33.975 19.5208C33.8777 19.8307 33.8074 20.1545 33.7646 20.4936C33.7217 20.8333 33.7044 21.1582 33.7117 21.4689C33.772 22.5677 34.1607 23.5702 34.8781 24.4764C34.9487 24.5661 35.0203 24.6489 35.0923 24.7276C35.1024 24.74 35.1126 24.7524 35.1226 24.7655C35.2971 24.9601 35.4742 25.137 35.6526 25.298C36.0352 25.6101 36.4422 25.8626 36.8747 26.055C37.3834 26.2918 37.9376 26.4474 38.5373 26.5231C39.1367 26.5988 39.7066 26.5851 40.2467 26.4807Z" fill="url(#paint0_linear_4684_873)"/>
<path d="M17.8275 15.2349L17.8274 15.235C17.9159 15.3802 17.9955 15.5298 18.0659 15.6832C18.1184 15.7913 18.167 15.9039 18.2121 16.0207C18.315 16.2867 18.3934 16.5584 18.4463 16.8348C18.636 17.7787 18.5189 18.7112 18.1074 19.6179C18.0656 19.7104 18.0195 19.8024 17.9701 19.894C17.6591 20.4769 17.2497 20.9707 16.7427 21.3698C16.3678 21.6756 15.9375 21.9194 15.4575 22.105C14.9768 22.2909 14.4913 22.4011 14.0018 22.4305C13.5903 22.4614 13.1758 22.4356 12.7594 22.3556L12.7472 22.3533L12.735 22.3503C12.5367 22.3018 12.3335 22.2411 12.1259 22.1665L12.108 22.16L12.0906 22.1522L12.0809 22.1481C11.9981 22.119 11.9122 22.0861 11.8232 22.0475C10.9092 21.6538 10.192 21.0451 9.68912 20.2237L9.68501 20.217L9.68112 20.2102C9.54845 19.9774 9.43002 19.7263 9.32583 19.4568C9.22024 19.1838 9.14077 18.9091 9.08722 18.6323C8.97217 18.0792 8.96672 17.527 9.0733 16.9799C9.1441 16.6009 9.264 16.2273 9.43084 15.8603M17.8275 15.2349L15.2606 13.7896M17.8275 15.2349L17.821 15.2248C17.8005 15.1929 17.7775 15.1556 17.7521 15.113L17.7468 15.104L17.7411 15.0953C17.2565 14.3543 16.5745 13.8008 15.7153 13.4304M17.8275 15.2349L15.517 13.8894M9.43084 15.8603C9.43093 15.8601 9.43102 15.8599 9.43112 15.8597L9.88627 16.0667L9.43056 15.8609C9.43065 15.8607 9.43075 15.8605 9.43084 15.8603ZM9.43084 15.8603C9.46774 15.7786 9.50477 15.6975 9.54127 15.6176L9.54749 15.604L9.5545 15.5908C9.87146 14.994 10.2895 14.4901 10.8088 14.0866M10.8088 14.0866L11.1161 14.4809L10.8094 14.0861C10.8092 14.0863 10.809 14.0864 10.8088 14.0866ZM10.8088 14.0866C11.132 13.8347 11.4861 13.6239 11.8697 13.4546L11.8804 13.4499L11.8913 13.4457L11.8917 13.4455L11.8921 13.4454L11.8925 13.4452L11.8929 13.4451L11.8933 13.4449L11.8936 13.4448L11.894 13.4446L11.8944 13.4445L11.8948 13.4443L11.8952 13.4441L11.8956 13.444L11.896 13.4438L11.8964 13.4437L11.8968 13.4435L11.8972 13.4434L11.8976 13.4432L11.898 13.4431L11.8984 13.4429L11.8988 13.4428L11.8992 13.4426L11.8995 13.4425L11.8999 13.4423L11.9003 13.4422L11.9007 13.442L11.9011 13.4419L11.9015 13.4417L11.9019 13.4416L11.9023 13.4414L11.9027 13.4413L11.9031 13.4411L11.9035 13.441L11.9039 13.4408L11.9042 13.4407L11.9046 13.4405L11.905 13.4404L11.9054 13.4402L11.9058 13.4401L11.9062 13.4399L11.9066 13.4398L11.907 13.4396L11.9074 13.4394L11.9078 13.4393L11.9082 13.4391L11.9085 13.439L11.9089 13.4388L11.9093 13.4387L11.9097 13.4385L11.9101 13.4384L11.9105 13.4382L11.9109 13.4381L11.9113 13.4379L11.9117 13.4378L11.9121 13.4376L11.9124 13.4375L11.9128 13.4373L11.9132 13.4372L11.9136 13.437L11.914 13.4369L11.9144 13.4367L11.9148 13.4366L11.9152 13.4364L11.9156 13.4363L11.9159 13.4361L11.9163 13.436L11.9167 13.4358L11.9171 13.4357L11.9175 13.4355L11.9179 13.4354L11.9183 13.4352L11.9187 13.4351L11.919 13.4349L11.9194 13.4348L11.9198 13.4346L11.9202 13.4345L11.9206 13.4343L11.921 13.4342L11.9214 13.434L11.9218 13.4339L11.9221 13.4337L11.9225 13.4336L11.9229 13.4334L11.9233 13.4333L11.9237 13.4331L11.9241 13.433L11.9245 13.4328L11.9248 13.4327L11.9252 13.4325L11.9256 13.4324L11.926 13.4322L11.9264 13.4321L11.9268 13.4319L11.9272 13.4318L11.9275 13.4316L11.9279 13.4315L11.9283 13.4314L11.9287 13.4312L11.9291 13.4311L11.9295 13.4309L11.9299 13.4308L11.9302 13.4306L11.9306 13.4305L11.931 13.4303L11.9314 13.4302L11.9318 13.43L11.9322 13.4299L11.9325 13.4297L11.9329 13.4296L11.9333 13.4294L11.9337 13.4293L11.9341 13.4291L11.9345 13.429L11.9348 13.4288L11.9352 13.4287L11.9356 13.4285L11.936 13.4284L11.9364 13.4282L11.9368 13.4281L11.9371 13.4279L11.9375 13.4278L11.9379 13.4276L11.9383 13.4275L11.9387 13.4273L11.9391 13.4272L11.9394 13.427L11.9398 13.4269L11.9402 13.4268L11.9406 13.4266L11.941 13.4265L11.9414 13.4263L11.9417 13.4262L11.9421 13.426L11.9425 13.4259L11.9429 13.4257L11.9433 13.4256L11.9436 13.4254L11.944 13.4253L11.9444 13.4251L11.9448 13.425L11.9452 13.4248L11.9455 13.4247L11.9459 13.4245L11.9463 13.4244L11.9467 13.4242L11.9471 13.4241L11.9474 13.424L11.9478 13.4238L11.9482 13.4237L11.9486 13.4235L11.949 13.4234L11.9494 13.4232L11.9497 13.4231L11.9501 13.4229L11.9505 13.4228L11.9509 13.4226L11.9512 13.4225L11.9516 13.4223L11.952 13.4222L11.9524 13.422L11.9528 13.4219L11.9531 13.4217L11.9535 13.4216L11.9539 13.4215L11.9543 13.4213L11.9547 13.4212L11.955 13.421L11.9554 13.4209L11.9558 13.4207L11.9562 13.4206L11.9566 13.4204L11.9569 13.4203L11.9573 13.4201L11.9577 13.42L11.9581 13.4198L11.9584 13.4197L11.9588 13.4196L11.9592 13.4194L11.9596 13.4193L11.9599 13.4191L11.9603 13.419L11.9607 13.4188L11.9611 13.4187L11.9615 13.4185L11.9618 13.4184L11.9622 13.4182L11.9626 13.4181L11.963 13.418L11.9633 13.4178L11.9637 13.4177L11.9641 13.4175L11.9645 13.4174L11.9648 13.4172L11.9652 13.4171L11.9656 13.4169L11.966 13.4168L11.9663 13.4166L11.9667 13.4165L11.9671 13.4164L11.9675 13.4162L11.9678 13.4161L11.9682 13.4159L11.9686 13.4158L11.969 13.4156L11.9693 13.4155L11.9697 13.4153L11.9701 13.4152L11.9705 13.415L11.9708 13.4149L11.9712 13.4148L11.9716 13.4146L11.972 13.4145L11.9723 13.4143L11.9727 13.4142L11.9731 13.414L11.9735 13.4139L11.9738 13.4137L11.9742 13.4136L11.9746 13.4135L11.975 13.4133L11.9753 13.4132L11.9757 13.413L11.9761 13.4129L11.9765 13.4127L11.9768 13.4126L11.9772 13.4124L11.9776 13.4123L11.9779 13.4122L11.9783 13.412L11.9787 13.4119L11.9791 13.4117L11.9794 13.4116L11.9798 13.4114L11.9802 13.4113L11.9805 13.4112L11.9809 13.411L11.9813 13.4109L11.9817 13.4107L11.982 13.4106L11.9824 13.4104L11.9828 13.4103L11.9832 13.4101L11.9835 13.41L11.9839 13.4099L11.9843 13.4097L11.9846 13.4096L11.985 13.4094L11.9854 13.4093L11.9857 13.4091L11.9861 13.409L11.9865 13.4089L11.9869 13.4087L11.9872 13.4086L11.9876 13.4084L11.988 13.4083L11.9883 13.4081L11.9887 13.408L11.9891 13.4079L11.9894 13.4077L11.9898 13.4076L11.9902 13.4074L11.9906 13.4073L11.9909 13.4071L11.9913 13.407L11.9917 13.4069L11.992 13.4067L11.9924 13.4066L11.9928 13.4064L11.9931 13.4063L11.9935 13.4061L11.9939 13.406L11.9942 13.4059L11.9946 13.4057L11.995 13.4056L11.9954 13.4054L11.9957 13.4053L11.9961 13.4051L11.9965 13.405L11.9968 13.4049L11.9972 13.4047L11.9976 13.4046L11.9979 13.4044L11.9983 13.4043L11.9987 13.4041L11.999 13.404L11.9994 13.4039L11.9998 13.4037L12.0001 13.4036L12.0005 13.4034L12.0009 13.4033L12.0012 13.4032L12.0016 13.403L12.002 13.4029L12.0023 13.4027L12.0027 13.4026L12.0031 13.4024L12.0034 13.4023L12.0038 13.4022L12.0042 13.402L12.0045 13.4019L12.0049 13.4017L12.0053 13.4016L12.0056 13.4015L12.006 13.4013L12.0064 13.4012L12.0067 13.401L12.0071 13.4009L12.0075 13.4007L12.0078 13.4006L12.0082 13.4005L12.0086 13.4003L12.0089 13.4002L12.0093 13.4L12.0096 13.3999L12.01 13.3998L12.0104 13.3996L12.0107 13.3995L12.0111 13.3993L12.0115 13.3992L12.0118 13.3991L12.0122 13.3989L12.0126 13.3988L12.0129 13.3986L12.0133 13.3985L12.0137 13.3984L12.014 13.3982L12.0144 13.3981L12.0147 13.3979L12.0151 13.3978L12.0155 13.3977L12.0158 13.3975L12.0162 13.3974L12.0166 13.3972L12.0169 13.3971L12.0173 13.3969L12.0176 13.3968L12.018 13.3967L12.0184 13.3965L12.0187 13.3964L12.0191 13.3962L12.0195 13.3961L12.0198 13.396L12.0202 13.3958L12.0205 13.3957L12.0209 13.3955L12.0213 13.3954L12.0216 13.3953L12.022 13.3951L12.0224 13.395L12.0227 13.3948L12.0231 13.3947L12.0234 13.3946L12.0238 13.3944L12.0242 13.3943L12.0245 13.3942L12.0249 13.394L12.0252 13.3939L12.0256 13.3937L12.026 13.3936L12.0263 13.3935L12.0267 13.3933L12.027 13.3932L12.0274 13.393L12.0278 13.3929L12.0281 13.3928L12.0285 13.3926L12.0288 13.3925L12.0292 13.3923L12.0296 13.3922L12.0299 13.3921L12.0303 13.3919L12.0306 13.3918L12.031 13.3916L12.0314 13.3915L12.0317 13.3914L12.0321 13.3912L12.0324 13.3911L12.0328 13.391L12.0332 13.3908L12.0335 13.3907L12.0339 13.3905L12.0342 13.3904L12.0346 13.3903L12.0349 13.3901L12.0353 13.39L12.0357 13.3898L12.036 13.3897L12.0364 13.3896L12.0367 13.3894L12.0371 13.3893L12.0374 13.3892L12.0378 13.389L12.0382 13.3889L12.0385 13.3887L12.0389 13.3886L12.0392 13.3885L12.0396 13.3883L12.04 13.3882L12.0403 13.388L12.0407 13.3879L12.041 13.3878L12.0414 13.3876L12.0417 13.3875L12.0421 13.3874L12.0424 13.3872L12.0428 13.3871L12.0432 13.3869L12.0435 13.3868L12.0439 13.3867L12.0442 13.3865L12.0446 13.3864L12.0449 13.3863L12.0453 13.3861L12.0457 13.386L12.046 13.3858L12.0464 13.3857L12.0467 13.3856L12.0471 13.3854L12.0474 13.3853L12.0478 13.3852L12.0481 13.385L12.0485 13.3849L12.0488 13.3847L12.0492 13.3846L12.0496 13.3845L12.0499 13.3843L12.0503 13.3842L12.0506 13.3841L12.051 13.3839L12.0513 13.3838L12.0517 13.3836L12.052 13.3835L12.0524 13.3834L12.0527 13.3832L12.0531 13.3831L12.0535 13.383L12.0538 13.3828L12.0542 13.3827L12.0545 13.3826L12.0549 13.3824L12.0552 13.3823L12.0556 13.3821L12.0559 13.382L12.0563 13.3819L12.0566 13.3817L12.057 13.3816L12.0573 13.3815L12.0577 13.3813L12.058 13.3812L12.0584 13.3811L12.0587 13.3809L12.0591 13.3808L12.0594 13.3806L12.0598 13.3805L12.0602 13.3804L12.0605 13.3802L12.0609 13.3801L12.0612 13.38L12.0616 13.3798L12.0619 13.3797L12.0623 13.3796L12.0626 13.3794L12.063 13.3793L12.0633 13.3791L12.0637 13.379L12.064 13.3789L12.0644 13.3787L12.0647 13.3786L12.0651 13.3785L12.0654 13.3783L12.0658 13.3782L12.0661 13.3781L12.0665 13.3779L12.0668 13.3778L12.0672 13.3777L12.0675 13.3775L12.0679 13.3774L12.0682 13.3773L12.0686 13.3771L12.0689 13.377L12.0693 13.3768L12.0696 13.3767L12.07 13.3766L12.0703 13.3764L12.0707 13.3763L12.071 13.3762L12.0714 13.376L12.0717 13.3759L12.0721 13.3758L12.0724 13.3756L12.0728 13.3755L12.0731 13.3754L12.0735 13.3752L12.0738 13.3751L12.0742 13.375L12.0745 13.3748L12.0749 13.3747L12.0752 13.3746L12.0755 13.3744L12.0759 13.3743L12.0762 13.3741L12.0766 13.374L12.0769 13.3739L12.0773 13.3737L12.0776 13.3736L12.078 13.3735L12.0783 13.3733L12.0787 13.3732L12.079 13.3731L12.0794 13.3729L12.0797 13.3728L12.0801 13.3727L12.0804 13.3725L12.0808 13.3724C12.5524 13.19 13.0274 13.0797 13.5039 13.0449M13.5039 13.0449C13.5038 13.0449 13.5038 13.0449 13.5038 13.0449L13.5402 13.5425L13.5039 13.0449ZM13.5039 13.0449C14.1511 12.9976 14.794 13.0911 15.4279 13.3185M15.4279 13.3185C15.4274 13.3183 15.4269 13.3181 15.4264 13.3179L15.2606 13.7896M15.4279 13.3185C15.4284 13.3186 15.429 13.3188 15.4295 13.319L15.2606 13.7896M15.4279 13.3185C15.5261 13.353 15.6221 13.3901 15.7153 13.4304M15.2606 13.7896C15.3501 13.8211 15.4356 13.8542 15.517 13.8894M15.7153 13.4304C15.7151 13.4304 15.715 13.4303 15.7148 13.4302L15.517 13.8894M15.7153 13.4304C15.7154 13.4305 15.7156 13.4305 15.7157 13.4306L15.517 13.8894M19.129 24.2059L18.8406 24.4346L18.9734 24.7779L19.9564 27.32L15.6246 28.995L14.6463 26.4651L14.5136 26.1219L14.1464 26.1466C13.031 26.2216 11.9156 26.0602 10.7964 25.6565L10.4579 25.5344L10.2346 25.8166L8.51306 27.9931L4.89171 25.215L6.61559 23.0455L6.84459 22.7573L6.63742 22.453C6.47131 22.2091 6.31542 21.9465 6.16957 21.6646C6.0849 21.4917 6.00393 21.318 5.92725 21.1436L5.92714 21.1433L5.9269 21.1427L5.92666 21.142L5.92641 21.1414L5.92617 21.1408L5.92592 21.1401L5.92568 21.1395L5.92543 21.1389L5.92519 21.1382L5.92495 21.1376L5.9247 21.137L5.92446 21.1363L5.92421 21.1357L5.92397 21.1351L5.92372 21.1344L5.92348 21.1338L5.92323 21.1332L5.92299 21.1326L5.92274 21.1319L5.9225 21.1313L5.92226 21.1307L5.92201 21.13L5.92177 21.1294L5.92152 21.1288L5.92128 21.1281L5.92103 21.1275L5.92079 21.1269L5.92054 21.1262L5.9203 21.1256L5.92005 21.125L5.91981 21.1243L5.91956 21.1237L5.91932 21.123L5.91907 21.1224L5.91882 21.1218L5.91858 21.1211L5.91833 21.1205L5.91809 21.1199L5.91784 21.1192L5.9176 21.1186L5.91735 21.118L5.91711 21.1173L5.91686 21.1167L5.91662 21.1161L5.91637 21.1154L5.91613 21.1148L5.91588 21.1142L5.91563 21.1135L5.91539 21.1129L5.91514 21.1123L5.9149 21.1116L5.91465 21.111L5.91441 21.1104L5.91416 21.1097L5.91391 21.1091L5.91367 21.1084L5.91342 21.1078L5.91318 21.1072L5.91293 21.1065L5.91268 21.1059L5.91244 21.1053L5.91219 21.1046L5.91195 21.104L5.9117 21.1034L5.91145 21.1027L5.91121 21.1021L5.91096 21.1014L5.91071 21.1008L5.91047 21.1002L5.91022 21.0995L5.90998 21.0989L5.90973 21.0983L5.90948 21.0976L5.90924 21.097L5.90899 21.0963L5.90874 21.0957L5.9085 21.0951L5.90825 21.0944L5.908 21.0938L5.90776 21.0932L5.90751 21.0925L5.90726 21.0919L5.90702 21.0912L5.90677 21.0906L5.90652 21.09L5.90628 21.0893L5.90603 21.0887L5.90578 21.088L5.90553 21.0874L5.90529 21.0868L5.90504 21.0861L5.90479 21.0855L5.90455 21.0849L5.9043 21.0842L5.90405 21.0836L5.9038 21.0829L5.90356 21.0823L5.90331 21.0817L5.90306 21.081L5.90282 21.0804L5.90257 21.0797L5.90232 21.0791L5.90207 21.0785L5.90183 21.0778L5.90158 21.0772L5.90133 21.0765L5.90108 21.0759L5.90084 21.0753L5.90059 21.0746L5.90034 21.074L5.90009 21.0733L5.89984 21.0727L5.8996 21.0721L5.89935 21.0714L5.8991 21.0708L5.89885 21.0701L5.8986 21.0695L5.89836 21.0688L5.89811 21.0682L5.89786 21.0676L5.89761 21.0669L5.89736 21.0663L5.89712 21.0656L5.89687 21.065L5.89662 21.0644L5.89637 21.0637L5.89612 21.0631L5.89588 21.0624L5.89563 21.0618L5.89538 21.0611L5.89513 21.0605L5.89488 21.0599L5.89463 21.0592L5.89438 21.0586L5.89414 21.0579L5.89389 21.0573L5.89364 21.0566L5.89339 21.056L5.89314 21.0554L5.89289 21.0547L5.89264 21.0541L5.89239 21.0534L5.89215 21.0528L5.8919 21.0521L5.89165 21.0515L5.8914 21.0509L5.89115 21.0502L5.8909 21.0496L5.89065 21.0489L5.8904 21.0483L5.89015 21.0476L5.8899 21.047L5.88966 21.0463L5.88941 21.0457L5.88916 21.0451L5.88891 21.0444L5.88866 21.0438L5.88841 21.0431L5.88816 21.0425L5.88791 21.0418L5.88766 21.0412L5.88741 21.0405L5.88716 21.0399L5.88691 21.0392L5.88666 21.0386L5.88641 21.038L5.88616 21.0373L5.88591 21.0367L5.88566 21.036L5.88541 21.0354L5.88516 21.0347L5.88491 21.0341L5.88466 21.0334L5.88441 21.0328L5.88416 21.0321L5.88391 21.0315L5.88366 21.0308L5.88341 21.0302L5.88316 21.0296L5.88291 21.0289L5.88266 21.0283L5.88241 21.0276L5.88216 21.027L5.88191 21.0263L5.88166 21.0257L5.88141 21.025L5.88116 21.0244L5.88091 21.0237L5.88066 21.0231L5.88041 21.0224L5.88016 21.0218L5.87991 21.0211L5.87966 21.0205L5.87941 21.0198L5.87916 21.0192L5.87891 21.0185L5.87865 21.0179L5.8784 21.0172L5.87815 21.0166L5.8779 21.0159L5.87765 21.0153L5.8774 21.0147L5.87715 21.014L5.8769 21.0134L5.87665 21.0127L5.8764 21.0121L5.87614 21.0114L5.87589 21.0108L5.87564 21.0101L5.87539 21.0095L5.87514 21.0088L5.87489 21.0082L5.87464 21.0075L5.87439 21.0069L5.87413 21.0062L5.87388 21.0056L5.87363 21.0049L5.87338 21.0043L5.87313 21.0036L5.87288 21.003L5.87262 21.0023L5.87237 21.0016L5.87212 21.001L5.87187 21.0003L5.87162 20.9997L5.87137 20.999L5.87111 20.9984L5.87086 20.9977L5.87061 20.9971L5.87036 20.9964L5.87011 20.9958L5.86985 20.9951L5.8696 20.9945L5.86935 20.9938L5.8691 20.9932L5.86885 20.9925L5.86859 20.9919L5.86834 20.9912L5.86809 20.9906L5.86784 20.9899L5.86758 20.9893L5.86733 20.9886L5.86708 20.988L5.86683 20.9873L5.86657 20.9867L5.86632 20.986L5.86607 20.9853L5.86582 20.9847L5.86556 20.984L5.86531 20.9834L5.86506 20.9827L5.8648 20.9821L5.86455 20.9814L5.8643 20.9808L5.86405 20.9801L5.86379 20.9795L5.86354 20.9788L5.86329 20.9782L5.86303 20.9775L5.86278 20.9768L5.86253 20.9762L5.86227 20.9755L5.86202 20.9749L5.86177 20.9742L5.86151 20.9736L5.86126 20.9729L5.86101 20.9723L5.86075 20.9716L5.8605 20.9709L5.86025 20.9703L5.85999 20.9696L5.85974 20.969L5.85949 20.9683L5.85923 20.9677L5.85898 20.967L5.85872 20.9664L5.85847 20.9657L5.85822 20.965L5.85796 20.9644L5.85771 20.9637L5.85746 20.9631L5.8572 20.9624L5.85695 20.9618L5.85669 20.9611L5.85644 20.9604L5.85619 20.9598L5.85593 20.9591L5.85568 20.9585L5.85542 20.9578L5.85517 20.9572L5.85491 20.9565L5.85466 20.9558L5.85441 20.9552L5.85415 20.9545L5.8539 20.9539L5.85364 20.9532L5.85339 20.9525L5.85313 20.9519L5.85288 20.9512L5.85262 20.9506L5.85237 20.9499L5.85211 20.9493L5.85186 20.9486L5.8516 20.9479L5.85135 20.9473L5.85109 20.9466L5.85084 20.946L5.85058 20.9453L5.85033 20.9446L5.85007 20.944L5.84982 20.9433L5.84956 20.9427L5.84931 20.942L5.84905 20.9413L5.8488 20.9407L5.84854 20.94L5.84829 20.9394L5.84803 20.9387L5.84778 20.938L5.84752 20.9374L5.84727 20.9367L5.84701 20.9361L5.84675 20.9354L5.8465 20.9347L5.84624 20.9341L5.84599 20.9334L5.84573 20.9328L5.84548 20.9321L5.84522 20.9314L5.84496 20.9308L5.84471 20.9301L5.84445 20.9294L5.8442 20.9288L5.84394 20.9281L5.84368 20.9275L5.84343 20.9268L5.84317 20.9261L5.84292 20.9255L5.84266 20.9248L5.8424 20.9241L5.84215 20.9235L5.84189 20.9228L5.84163 20.9222L5.84138 20.9215L5.84112 20.9208L5.84086 20.9202L5.84061 20.9195L5.84035 20.9188L5.84009 20.9182L5.83984 20.9175L5.83958 20.9168L5.83932 20.9162L5.83907 20.9155L5.83881 20.9149L5.83855 20.9142L5.8383 20.9135L5.83804 20.9129L5.83778 20.9122L5.83753 20.9115L5.83727 20.9109L5.83701 20.9102L5.83676 20.9095L5.8365 20.9089L5.83624 20.9082L5.83598 20.9075L5.83573 20.9069L5.83547 20.9062L5.83521 20.9055L5.83495 20.9049L5.8347 20.9042L5.83444 20.9035L5.83418 20.9029L5.83392 20.9022L5.83367 20.9015L5.83341 20.9009L5.83315 20.9002L5.83289 20.8995L5.83263 20.8989L5.83238 20.8982L5.83212 20.8975L5.83186 20.8969L5.8316 20.8962L5.83135 20.8955L5.83109 20.8949L5.83083 20.8942L5.83057 20.8935L5.83031 20.8929L5.83005 20.8922L5.8298 20.8915L5.82954 20.8909L5.82928 20.8902L5.82902 20.8895L5.82876 20.8889L5.8285 20.8882L5.82825 20.8875L5.82799 20.8869L5.82773 20.8862L5.82747 20.8855L5.82721 20.8849L5.82695 20.8842L5.82669 20.8835L5.82643 20.8828L5.82618 20.8822L5.82592 20.8815L5.82566 20.8808L5.8254 20.8802L5.82514 20.8795L5.82488 20.8788L5.82462 20.8782L5.82436 20.8775L5.8241 20.8768L5.82384 20.8761L5.82358 20.8755L5.82333 20.8748L5.82307 20.8741L5.82281 20.8735L5.82255 20.8728L5.82229 20.8721L5.82203 20.8715L5.82177 20.8708L5.82151 20.8701L5.82125 20.8694L5.82099 20.8688L5.82073 20.8681L5.82047 20.8674L5.82021 20.8667L5.81995 20.8661L5.81969 20.8654L5.81943 20.8647L5.81917 20.8641L5.81891 20.8634L5.81865 20.8627L5.81839 20.862L5.81813 20.8614L5.81787 20.8607L5.81761 20.86L5.81735 20.8594L5.81709 20.8587L5.81683 20.858L5.81657 20.8573L5.81631 20.8567L5.81605 20.856L5.81579 20.8553L5.81553 20.8546L5.81527 20.854L5.81501 20.8533L5.81474 20.8526L5.81448 20.8519L5.81422 20.8513L5.81396 20.8506L5.8137 20.8499L5.81344 20.8492L5.81318 20.8486L5.81292 20.8479L5.81266 20.8472L5.8124 20.8465L5.81213 20.8459L5.81187 20.8452L5.81161 20.8445L5.81135 20.8438L5.81109 20.8432L5.81083 20.8425L5.81057 20.8418L5.81031 20.8411L5.81004 20.8405L5.80978 20.8398L5.80952 20.8391L5.80926 20.8384L5.809 20.8378L5.80874 20.8371L5.80847 20.8364L5.80821 20.8357L5.80795 20.835L5.80769 20.8344L5.80743 20.8337L5.80716 20.833L5.8069 20.8323L5.80664 20.8317L5.80638 20.831L5.80612 20.8303L5.80585 20.8296L5.80559 20.8289L5.80533 20.8283L5.80507 20.8276L5.8048 20.8269L5.80454 20.8262L5.80428 20.8256L5.80402 20.8249L5.80375 20.8242L5.80349 20.8235L5.80323 20.8228L5.80297 20.8222L5.8027 20.8215L5.80244 20.8208L5.80218 20.8201L5.80192 20.8194C5.56834 20.2154 5.40492 19.614 5.31034 19.0159L5.25363 18.6573L4.89509 18.6003L2.16701 18.1659L2.97722 13.6737L5.74247 14.1185L6.09401 14.1751L6.26242 13.8614C6.81734 12.8277 7.52819 11.963 8.3955 11.2613L8.67874 11.0321L8.54734 10.6922L7.56909 8.16235L11.9009 6.48735L12.8791 9.01724L13.0104 9.3568L13.3739 9.3361C13.9969 9.30062 14.6209 9.33608 15.2458 9.44261C15.435 9.47816 15.6253 9.51727 15.8163 9.56066C16.1123 9.63615 16.4091 9.72456 16.707 9.82641L17.0394 9.94005L17.259 9.66591L19.018 7.47019L22.6411 10.2498L20.9063 12.4245L20.6795 12.7087L20.88 13.012C21.2084 13.5087 21.4899 14.0587 21.7235 14.6629C21.9541 15.2592 22.1142 15.851 22.2057 16.4404L22.2615 16.7997L22.6204 16.8574L25.3667 17.2988L24.5563 21.7915L21.7911 21.3469L21.4376 21.2901L21.2699 21.6064C20.7189 22.6459 20.0054 23.5105 19.129 24.2059Z" stroke="black"/>
<path d="M26.9861 39.256L26.986 39.2561C27.0565 39.3885 27.119 39.5243 27.1732 39.6629C27.214 39.7608 27.251 39.8624 27.2847 39.9672C27.3616 40.2065 27.4169 40.4497 27.4494 40.6959C27.5686 41.5379 27.4174 42.3541 27.0093 43.1308C26.9677 43.2104 26.9224 43.289 26.8744 43.3669C26.5711 43.8639 26.1854 44.2781 25.7184 44.604C25.3721 44.8546 24.9807 45.0472 24.5496 45.1859C24.1178 45.3248 23.6849 45.3973 23.2519 45.3982C22.8877 45.4045 22.5242 45.3606 22.1621 45.2691L22.15 45.266L22.138 45.2624C21.9663 45.2098 21.7911 45.1462 21.6127 45.0701L21.5952 45.0627L21.5783 45.0539L21.5734 45.0515C21.5024 45.0218 21.4287 44.9885 21.3526 44.9502C20.5685 44.5573 19.9671 43.9843 19.5656 43.2346L19.5619 43.2277L19.5584 43.2206C19.4535 43.009 19.3623 42.7824 19.2845 42.5407C19.2056 42.2953 19.1496 42.0497 19.1165 41.8032C19.0433 41.3098 19.0666 40.8222 19.1886 40.3448C19.2703 40.0145 19.3949 39.6918 19.5601 39.3778C19.5963 39.3087 19.6325 39.2402 19.6681 39.1727L19.6751 39.1595L19.6829 39.1467C19.9922 38.6376 20.3864 38.2147 20.8649 37.8853C21.1621 37.6803 21.4842 37.5129 21.8299 37.3836L21.8409 37.3796L21.852 37.376L21.8523 37.3759L21.8527 37.3758L21.853 37.3756L21.8534 37.3755L21.8537 37.3754L21.8541 37.3753L21.8544 37.3752L21.8548 37.3751L21.8551 37.375L21.8555 37.3749L21.8558 37.3747L21.8562 37.3746L21.8565 37.3745L21.8569 37.3744L21.8572 37.3743L21.8575 37.3742L21.8579 37.3741L21.8582 37.374L21.8586 37.3738L21.8589 37.3737L21.8593 37.3736L21.8596 37.3735L21.86 37.3734L21.8603 37.3733L21.8607 37.3732L21.861 37.3731L21.8614 37.373L21.8617 37.3728L21.8621 37.3727L21.8624 37.3726L21.8628 37.3725L21.8631 37.3724L21.8635 37.3723L21.8638 37.3722L21.8641 37.3721L21.8645 37.3719L21.8648 37.3718L21.8652 37.3717L21.8655 37.3716L21.8659 37.3715L21.8662 37.3714L21.8666 37.3713L21.8669 37.3712L21.8673 37.3711L21.8676 37.3709L21.868 37.3708L21.8683 37.3707L21.8686 37.3706L21.869 37.3705L21.8693 37.3704L21.8697 37.3703L21.87 37.3702L21.8704 37.3701L21.8707 37.3699L21.8711 37.3698L21.8714 37.3697L21.8717 37.3696L21.8721 37.3695L21.8724 37.3694L21.8728 37.3693L21.8731 37.3692L21.8735 37.3691L21.8738 37.369L21.8742 37.3688L21.8745 37.3687L21.8748 37.3686L21.8752 37.3685L21.8755 37.3684L21.8759 37.3683L21.8762 37.3682L21.8766 37.3681L21.8769 37.368L21.8773 37.3678L21.8776 37.3677L21.8779 37.3676L21.8783 37.3675L21.8786 37.3674L21.879 37.3673L21.8793 37.3672L21.8797 37.3671L21.88 37.367L21.8803 37.3669L21.8807 37.3667L21.881 37.3666L21.8814 37.3665L21.8817 37.3664L21.882 37.3663L21.8824 37.3662L21.8827 37.3661L21.8831 37.366L21.8834 37.3659L21.8838 37.3658L21.8841 37.3656L21.8844 37.3655L21.8848 37.3654L21.8851 37.3653L21.8855 37.3652L21.8858 37.3651L21.8861 37.365L21.8865 37.3649L21.8868 37.3648L21.8872 37.3647L21.8875 37.3645L21.8878 37.3644L21.8882 37.3643L21.8885 37.3642L21.8889 37.3641L21.8892 37.364L21.8896 37.3639L21.8899 37.3638L21.8902 37.3637L21.8906 37.3636L21.8909 37.3635L21.8912 37.3633L21.8916 37.3632L21.8919 37.3631L21.8923 37.363L21.8926 37.3629L21.8929 37.3628L21.8933 37.3627L21.8936 37.3626L21.894 37.3625L21.8943 37.3624L21.8946 37.3623L21.895 37.3621L21.8953 37.362L21.8957 37.3619L21.896 37.3618L21.8963 37.3617L21.8967 37.3616L21.897 37.3615L21.8973 37.3614L21.8977 37.3613L21.898 37.3612L21.8984 37.3611L21.8987 37.3609L21.899 37.3608L21.8994 37.3607L21.8997 37.3606L21.9001 37.3605L21.9004 37.3604L21.9007 37.3603L21.9011 37.3602L21.9014 37.3601L21.9017 37.36L21.9021 37.3599L21.9024 37.3598L21.9027 37.3596L21.9031 37.3595L21.9034 37.3594L21.9038 37.3593L21.9041 37.3592L21.9044 37.3591L21.9048 37.359L21.9051 37.3589L21.9054 37.3588L21.9058 37.3587L21.9061 37.3586L21.9064 37.3585L21.9068 37.3583L21.9071 37.3582L21.9075 37.3581L21.9078 37.358L21.9081 37.3579L21.9085 37.3578L21.9088 37.3577L21.9091 37.3576L21.9095 37.3575L21.9098 37.3574L21.9101 37.3573L21.9105 37.3572L21.9108 37.3571L21.9111 37.3569L21.9115 37.3568L21.9118 37.3567L21.9121 37.3566L21.9125 37.3565L21.9128 37.3564L21.9131 37.3563L21.9135 37.3562L21.9138 37.3561L21.9142 37.356L21.9145 37.3559L21.9148 37.3558L21.9152 37.3557L21.9155 37.3555L21.9158 37.3554L21.9162 37.3553L21.9165 37.3552L21.9168 37.3551L21.9172 37.355L21.9175 37.3549L21.9178 37.3548L21.9182 37.3547L21.9185 37.3546L21.9188 37.3545L21.9191 37.3544L21.9195 37.3543L21.9198 37.3542L21.9201 37.354L21.9205 37.3539L21.9208 37.3538L21.9211 37.3537L21.9215 37.3536L21.9218 37.3535L21.9221 37.3534L21.9225 37.3533L21.9228 37.3532L21.9231 37.3531L21.9235 37.353L21.9238 37.3529L21.9241 37.3528L21.9245 37.3527L21.9248 37.3526L21.9251 37.3524L21.9255 37.3523L21.9258 37.3522L21.9261 37.3521L21.9264 37.352L21.9268 37.3519L21.9271 37.3518L21.9274 37.3517L21.9278 37.3516L21.9281 37.3515L21.9284 37.3514L21.9288 37.3513L21.9291 37.3512L21.9294 37.3511L21.9298 37.351L21.9301 37.3509L21.9304 37.3507L21.9307 37.3506L21.9311 37.3505L21.9314 37.3504L21.9317 37.3503L21.9321 37.3502L21.9324 37.3501L21.9327 37.35L21.933 37.3499L21.9334 37.3498L21.9337 37.3497L21.934 37.3496L21.9344 37.3495L21.9347 37.3494L21.935 37.3493L21.9353 37.3492L21.9357 37.3491L21.936 37.3489L21.9363 37.3488L21.9367 37.3487L21.937 37.3486L21.9373 37.3485L21.9376 37.3484L21.938 37.3483L21.9383 37.3482L21.9386 37.3481L21.939 37.348L21.9393 37.3479L21.9396 37.3478L21.9399 37.3477L21.9403 37.3476L21.9406 37.3475L21.9409 37.3474L21.9412 37.3473L21.9416 37.3472L21.9419 37.347L21.9422 37.3469L21.9426 37.3468L21.9429 37.3467L21.9432 37.3466L21.9435 37.3465L21.9439 37.3464L21.9442 37.3463L21.9445 37.3462L21.9448 37.3461L21.9452 37.346L21.9455 37.3459L21.9458 37.3458L21.9461 37.3457L21.9465 37.3456L21.9468 37.3455L21.9471 37.3454L21.9474 37.3453L21.9478 37.3452L21.9481 37.3451L21.9484 37.345L21.9487 37.3448L21.9491 37.3447L21.9494 37.3446L21.9497 37.3445L21.95 37.3444L21.9504 37.3443L21.9507 37.3442L21.951 37.3441L21.9513 37.344L21.9517 37.3439L21.952 37.3438L21.9523 37.3437L21.9526 37.3436L21.953 37.3435L21.9533 37.3434L21.9536 37.3433L21.9539 37.3432L21.9543 37.3431L21.9546 37.343L21.9549 37.3429L21.9552 37.3428L21.9556 37.3427L21.9559 37.3426L21.9562 37.3424L21.9565 37.3423L21.9569 37.3422L21.9572 37.3421L21.9575 37.342L21.9578 37.3419L21.9581 37.3418L21.9585 37.3417L21.9588 37.3416L21.9591 37.3415L21.9594 37.3414L21.9598 37.3413L21.9601 37.3412L21.9604 37.3411L21.9607 37.341L21.961 37.3409L21.9614 37.3408L21.9617 37.3407L21.962 37.3406L21.9623 37.3405L21.9627 37.3404L21.963 37.3403L21.9633 37.3402L21.9636 37.3401L21.9639 37.34L21.9643 37.3399L21.9646 37.3398L21.9649 37.3396L21.9652 37.3395L21.9655 37.3394L21.9659 37.3393L21.9662 37.3392L21.9665 37.3391L21.9668 37.339L21.9672 37.3389L21.9675 37.3388L21.9678 37.3387L21.9681 37.3386L21.9684 37.3385L21.9688 37.3384L21.9691 37.3383L21.9694 37.3382L21.9697 37.3381L21.97 37.338L21.9704 37.3379L21.9707 37.3378L21.971 37.3377L21.9713 37.3376L21.9716 37.3375L21.9719 37.3374L21.9723 37.3373L21.9726 37.3372L21.9729 37.3371L21.9732 37.337L21.9735 37.3369L21.9739 37.3368L21.9742 37.3367L21.9745 37.3366L21.9748 37.3365L21.9751 37.3364L21.9755 37.3363L21.9758 37.3362L21.9761 37.336L21.9764 37.3359L21.9767 37.3358L21.977 37.3357L21.9774 37.3356L21.9777 37.3355L21.978 37.3354L21.9783 37.3353L21.9786 37.3352L21.979 37.3351L21.9793 37.335L21.9796 37.3349L21.9799 37.3348L21.9802 37.3347L21.9805 37.3346L21.9809 37.3345L21.9812 37.3344L21.9815 37.3343L21.9818 37.3342L21.9821 37.3341L21.9824 37.334L21.9828 37.3339L21.9831 37.3338L21.9834 37.3337L21.9837 37.3336L21.984 37.3335L21.9843 37.3334L21.9847 37.3333L21.985 37.3332L21.9853 37.3331L21.9856 37.333L21.9859 37.3329L21.9862 37.3328L21.9866 37.3327L21.9869 37.3326L21.9872 37.3325L21.9875 37.3324L21.9878 37.3323L21.9881 37.3322L21.9884 37.3321L21.9888 37.332L21.9891 37.3319L21.9894 37.3318L21.9897 37.3317L21.99 37.3316L21.9903 37.3315L21.9906 37.3314L21.991 37.3313L21.9913 37.3312L21.9916 37.3311L21.9919 37.331L21.9922 37.3309L21.9925 37.3308L21.9928 37.3307L21.9932 37.3306L21.9935 37.3305L21.9938 37.3304L21.9941 37.3303L21.9944 37.3302L21.9947 37.3301L21.995 37.33L21.9954 37.3299L21.9957 37.3298L21.996 37.3297L21.9963 37.3295L21.9966 37.3294L21.9969 37.3293L21.9972 37.3292L21.9976 37.3291L21.9979 37.329L21.9982 37.3289L21.9985 37.3288L21.9988 37.3287L21.9991 37.3286L21.9994 37.3285L21.9997 37.3284L22.0001 37.3283L22.0004 37.3282L22.0007 37.3281L22.001 37.328L22.0013 37.3279L22.0016 37.3278L22.0019 37.3277L22.0022 37.3276L22.0025 37.3275L22.0029 37.3274L22.0032 37.3273L22.0035 37.3272L22.0038 37.3271L22.0041 37.327L22.0044 37.3269L22.0047 37.3268L22.005 37.3267L22.0053 37.3266L22.0057 37.3265L22.006 37.3264L22.0063 37.3263L22.0066 37.3262L22.0069 37.3261L22.0072 37.326L22.0075 37.3259L22.0078 37.3258L22.0081 37.3257L22.0085 37.3256L22.0088 37.3255L22.0091 37.3254L22.0094 37.3253L22.0097 37.3252L22.01 37.3251L22.0103 37.325L22.0106 37.3249L22.0109 37.3248L22.0112 37.3247L22.0115 37.3246L22.0119 37.3245L22.0122 37.3244L22.0125 37.3243L22.0128 37.3242L22.0131 37.3241L22.0134 37.324L22.0137 37.3239L22.014 37.3238L22.0143 37.3237L22.0146 37.3237L22.0149 37.3236L22.0153 37.3235L22.0156 37.3234L22.0159 37.3233L22.0162 37.3232L22.0165 37.3231L22.0168 37.323L22.0171 37.3229L22.0174 37.3228L22.0177 37.3227L22.018 37.3226L22.0183 37.3225L22.0186 37.3224L22.0189 37.3223L22.0193 37.3222L22.0196 37.3221L22.0199 37.322C22.4435 37.1857 22.8672 37.1127 23.2889 37.1063L26.9861 39.256ZM26.9861 39.256L26.9802 39.2456M26.9861 39.256L26.9802 39.2456M26.9802 39.2456C26.9645 39.2177 26.9468 39.1849 26.9272 39.1472L26.9223 39.1379M26.9802 39.2456L26.9223 39.1379M26.9223 39.1379L26.9171 39.1289M26.9223 39.1379L26.9171 39.1289M26.9171 39.1289C26.5273 38.4501 25.9537 37.9275 25.2171 37.5582M26.9171 39.1289L25.2171 37.5582M25.2171 37.5582C25.1368 37.5178 25.0542 37.4803 24.9698 37.445C24.4237 37.2128 23.8621 37.0975 23.289 37.1063L25.2171 37.5582ZM27.5686 47.0742L27.2676 47.286L27.3803 47.6363L28.0848 49.8264L24.3716 51.0208L23.6706 48.8417L23.5579 48.4913L23.1899 48.4948C22.2289 48.5039 21.2791 48.3101 20.3372 47.9074L20.0063 47.766L19.7671 48.0349L18.209 49.7867L15.3091 47.2834L16.8674 45.5393L17.1126 45.2648L16.9234 44.9491C16.7932 44.7319 16.6725 44.4991 16.5613 44.2499C16.4972 44.0973 16.4363 43.9442 16.3792 43.7907L16.379 43.7902L16.3788 43.7897L16.3786 43.7891L16.3785 43.7885L16.3783 43.788L16.3781 43.7874L16.3779 43.7869L16.3777 43.7863L16.3775 43.7857L16.3774 43.7852L16.3772 43.7846L16.377 43.7841L16.3768 43.7835L16.3766 43.7829L16.3765 43.7824L16.3763 43.7818L16.3761 43.7813L16.3759 43.7807L16.3757 43.7801L16.3756 43.7796L16.3754 43.779L16.3752 43.7784L16.375 43.7779L16.3748 43.7773L16.3747 43.7768L16.3745 43.7762L16.3743 43.7756L16.3741 43.7751L16.3739 43.7745L16.3738 43.774L16.3736 43.7734L16.3734 43.7728L16.3732 43.7723L16.373 43.7717L16.3729 43.7711L16.3727 43.7706L16.3725 43.77L16.3723 43.7695L16.3721 43.7689L16.372 43.7683L16.3718 43.7678L16.3716 43.7672L16.3714 43.7666L16.3712 43.7661L16.371 43.7655L16.3709 43.765L16.3707 43.7644L16.3705 43.7638L16.3703 43.7633L16.3701 43.7627L16.37 43.7621L16.3698 43.7616L16.3696 43.761L16.3694 43.7604L16.3692 43.7599L16.3691 43.7593L16.3689 43.7588L16.3687 43.7582L16.3685 43.7576L16.3683 43.7571L16.3681 43.7565L16.368 43.7559L16.3678 43.7554L16.3676 43.7548L16.3674 43.7542L16.3672 43.7537L16.3671 43.7531L16.3669 43.7526L16.3667 43.752L16.3665 43.7514L16.3663 43.7509L16.3661 43.7503L16.366 43.7497L16.3658 43.7492L16.3656 43.7486L16.3654 43.748L16.3652 43.7475L16.3651 43.7469L16.3649 43.7463L16.3647 43.7458L16.3645 43.7452L16.3643 43.7446L16.3641 43.7441L16.364 43.7435L16.3638 43.7429L16.3636 43.7424L16.3634 43.7418L16.3632 43.7412L16.3631 43.7407L16.3629 43.7401L16.3627 43.7395L16.3625 43.739L16.3623 43.7384L16.3621 43.7378L16.362 43.7373L16.3618 43.7367L16.3616 43.7361L16.3614 43.7356L16.3612 43.735L16.361 43.7344L16.3609 43.7339L16.3607 43.7333L16.3605 43.7327L16.3603 43.7322L16.3601 43.7316L16.36 43.731L16.3598 43.7305L16.3596 43.7299L16.3594 43.7293L16.3592 43.7288L16.359 43.7282L16.3589 43.7276L16.3587 43.7271L16.3585 43.7265L16.3583 43.7259L16.3581 43.7254L16.3579 43.7248L16.3578 43.7242L16.3576 43.7236L16.3574 43.7231L16.3572 43.7225L16.357 43.7219L16.3568 43.7214L16.3567 43.7208L16.3565 43.7202L16.3563 43.7197L16.3561 43.7191L16.3559 43.7185L16.3557 43.718L16.3556 43.7174L16.3554 43.7168L16.3552 43.7162L16.355 43.7157L16.3548 43.7151L16.3546 43.7145L16.3545 43.714L16.3543 43.7134L16.3541 43.7128L16.3539 43.7123L16.3537 43.7117L16.3535 43.7111L16.3534 43.7105L16.3532 43.71L16.353 43.7094L16.3528 43.7088L16.3526 43.7083L16.3524 43.7077L16.3523 43.7071L16.3521 43.7066L16.3519 43.706L16.3517 43.7054L16.3515 43.7048L16.3513 43.7043L16.3512 43.7037L16.351 43.7031L16.3508 43.7026L16.3506 43.702L16.3504 43.7014L16.3502 43.7008L16.3501 43.7003L16.3499 43.6997L16.3497 43.6991L16.3495 43.6986L16.3493 43.698L16.3491 43.6974L16.349 43.6968L16.3488 43.6963L16.3486 43.6957L16.3484 43.6951L16.3482 43.6945L16.348 43.694L16.3478 43.6934L16.3477 43.6928L16.3475 43.6923L16.3473 43.6917L16.3471 43.6911L16.3469 43.6905L16.3467 43.69L16.3466 43.6894L16.3464 43.6888L16.3462 43.6882L16.346 43.6877L16.3458 43.6871L16.3456 43.6865L16.3454 43.6859L16.3453 43.6854L16.3451 43.6848L16.3449 43.6842L16.3447 43.6836L16.3445 43.6831L16.3443 43.6825L16.3442 43.6819L16.344 43.6813L16.3438 43.6808L16.3436 43.6802L16.3434 43.6796L16.3432 43.679L16.343 43.6785L16.3429 43.6779L16.3427 43.6773L16.3425 43.6767L16.3423 43.6762L16.3421 43.6756L16.3419 43.675L16.3417 43.6744L16.3416 43.6739L16.3414 43.6733L16.3412 43.6727L16.341 43.6721L16.3408 43.6716L16.3406 43.671L16.3405 43.6704L16.3403 43.6698L16.3401 43.6693L16.3399 43.6687L16.3397 43.6681L16.3395 43.6675L16.3393 43.667L16.3392 43.6664L16.339 43.6658L16.3388 43.6652L16.3386 43.6646L16.3384 43.6641L16.3382 43.6635L16.338 43.6629L16.3379 43.6623L16.3377 43.6618L16.3375 43.6612L16.3373 43.6606L16.3371 43.66L16.3369 43.6594L16.3367 43.6589L16.3366 43.6583L16.3364 43.6577L16.3362 43.6571L16.336 43.6566L16.3358 43.656L16.3356 43.6554L16.3354 43.6548L16.3353 43.6542L16.3351 43.6537L16.3349 43.6531L16.3347 43.6525L16.3345 43.6519L16.3343 43.6513L16.3341 43.6508L16.3339 43.6502L16.3338 43.6496L16.3336 43.649L16.3334 43.6485L16.3332 43.6479L16.333 43.6473L16.3328 43.6467L16.3326 43.6461L16.3325 43.6456L16.3323 43.645L16.3321 43.6444L16.3319 43.6438L16.3317 43.6432L16.3315 43.6427L16.3313 43.6421L16.3311 43.6415L16.331 43.6409L16.3308 43.6403L16.3306 43.6397L16.3304 43.6392L16.3302 43.6386L16.33 43.638L16.3298 43.6374L16.3297 43.6368L16.3295 43.6363L16.3293 43.6357L16.3291 43.6351L16.3289 43.6345L16.3287 43.6339L16.3285 43.6334L16.3283 43.6328L16.3282 43.6322L16.328 43.6316L16.3278 43.631L16.3276 43.6304L16.3274 43.6299L16.3272 43.6293L16.327 43.6287L16.3268 43.6281L16.3267 43.6275L16.3265 43.6269L16.3263 43.6264L16.3261 43.6258L16.3259 43.6252L16.3257 43.6246L16.3255 43.624L16.3253 43.6234L16.3252 43.6229L16.325 43.6223L16.3248 43.6217L16.3246 43.6211L16.3244 43.6205L16.3242 43.6199L16.324 43.6194L16.3238 43.6188L16.3237 43.6182L16.3235 43.6176L16.3233 43.617L16.3231 43.6164L16.3229 43.6159L16.3227 43.6153L16.3225 43.6147L16.3223 43.6141L16.3221 43.6135L16.322 43.6129L16.3218 43.6123L16.3216 43.6118L16.3214 43.6112L16.3212 43.6106L16.321 43.61L16.3208 43.6094L16.3206 43.6088L16.3205 43.6083L16.3203 43.6077L16.3201 43.6071L16.3199 43.6065L16.3197 43.6059L16.3195 43.6053L16.3193 43.6047L16.3191 43.6041L16.3189 43.6036L16.3188 43.603L16.3186 43.6024L16.3184 43.6018L16.3182 43.6012L16.318 43.6006L16.3178 43.6L16.3176 43.5995L16.3174 43.5989L16.3172 43.5983L16.3171 43.5977L16.3169 43.5971L16.3167 43.5965L16.3165 43.5959L16.3163 43.5953L16.3161 43.5948L16.3159 43.5942L16.3157 43.5936L16.3155 43.593L16.3154 43.5924L16.3152 43.5918L16.315 43.5912L16.3148 43.5906L16.3146 43.59L16.3144 43.5895L16.3142 43.5889L16.314 43.5883L16.3138 43.5877L16.3137 43.5871L16.3135 43.5865L16.3133 43.5859L16.3131 43.5853L16.3129 43.5847L16.3127 43.5842L16.3125 43.5836L16.3123 43.583L16.3121 43.5824L16.3119 43.5818L16.3118 43.5812L16.3116 43.5806L16.3114 43.58L16.3112 43.5794L16.311 43.5788L16.3108 43.5783L16.3106 43.5777L16.3104 43.5771L16.3102 43.5765L16.31 43.5759L16.3099 43.5753L16.3097 43.5747L16.3095 43.5741L16.3093 43.5735L16.3091 43.5729L16.3089 43.5723L16.3087 43.5718L16.3085 43.5712L16.3083 43.5706L16.3081 43.57L16.308 43.5694L16.3078 43.5688L16.3076 43.5682L16.3074 43.5676L16.3072 43.567L16.307 43.5664L16.3068 43.5658L16.3066 43.5652L16.3064 43.5647L16.3062 43.5641L16.306 43.5635L16.3059 43.5629L16.3057 43.5623L16.3055 43.5617L16.3053 43.5611L16.3051 43.5605L16.3049 43.5599L16.3047 43.5593L16.3045 43.5587L16.3043 43.5581L16.3041 43.5575L16.304 43.5569L16.3038 43.5563L16.3036 43.5558L16.3034 43.5552L16.3032 43.5546L16.303 43.554L16.3028 43.5534L16.3026 43.5528L16.3024 43.5522L16.3022 43.5516L16.302 43.551L16.3018 43.5504L16.3017 43.5498L16.3015 43.5492L16.3013 43.5486L16.3011 43.548L16.3009 43.5474L16.3007 43.5468L16.3005 43.5462L16.3003 43.5456L16.3001 43.545L16.2999 43.5444L16.2997 43.5439L16.2995 43.5433L16.2994 43.5427L16.2992 43.5421L16.299 43.5415L16.2988 43.5409L16.2986 43.5403L16.2984 43.5397L16.2982 43.5391L16.298 43.5385L16.2978 43.5379L16.2976 43.5373L16.2974 43.5367L16.2972 43.5361L16.2971 43.5355L16.2969 43.5349L16.2967 43.5343L16.2965 43.5337L16.2963 43.5331L16.2961 43.5325L16.2959 43.5319L16.2957 43.5313L16.2955 43.5307L16.2953 43.5301L16.2951 43.5295L16.2949 43.5289L16.2947 43.5283L16.2946 43.5277L16.2944 43.5271L16.2942 43.5265L16.294 43.5259L16.2938 43.5253L16.2936 43.5247L16.2934 43.5241L16.2932 43.5235L16.293 43.5229L16.2928 43.5223L16.2926 43.5217L16.2924 43.5211L16.2922 43.5205L16.292 43.5199L16.2919 43.5193L16.2917 43.5187L16.2915 43.5181L16.2913 43.5175L16.2911 43.5169L16.2909 43.5163L16.2907 43.5157L16.2905 43.5151L16.2903 43.5145L16.2901 43.5139L16.2899 43.5133L16.2897 43.5127L16.2895 43.5121L16.2893 43.5115L16.2891 43.5109L16.289 43.5103L16.2888 43.5097L16.2886 43.5091L16.2884 43.5085L16.2882 43.5079L16.288 43.5073L16.2878 43.5067L16.2876 43.5061L16.2874 43.5055L16.2872 43.5049C16.1164 42.9738 16.0059 42.4489 15.9543 41.9307L15.9184 41.5694L15.5638 41.4917L13.2865 40.993L14.183 37.268L16.4945 37.7782L16.8422 37.8549L17.0284 37.5515C17.5568 36.6904 18.2104 35.9831 18.9899 35.4236L19.2859 35.2112L19.1743 34.8643L18.4733 32.6852L22.1866 31.4907L22.8876 33.6699L22.999 34.0164L23.3631 34.0167C23.8997 34.0172 24.4336 34.0786 24.9651 34.201C25.1261 34.2411 25.2878 34.2842 25.4499 34.3309C25.7007 34.4106 25.9516 34.5014 26.2028 34.6039L26.5281 34.7365L26.7632 34.4755L28.3547 32.7083L31.2562 35.2132L29.6883 36.9613L29.4456 37.2319L29.6282 37.5463C29.8854 37.9889 30.1 38.4753 30.2709 39.0066C30.4395 39.5308 30.5476 40.0471 30.5969 40.5576L30.6318 40.9195L30.9869 40.9978L33.2796 41.5036L32.3829 45.2291L30.0715 44.7191L29.7219 44.6419L29.5362 44.948C29.011 45.814 28.3554 46.5209 27.5686 47.0742Z" stroke="black"/>
<defs>
<linearGradient id="paint0_linear_4684_873" x1="54.1178" y1="23.0633" x2="24.3334" y2="19.3028" gradientUnits="userSpaceOnUse">
<stop stop-color="#16FF00"/>
<stop offset="1" stop-color="#4DFFC9"/>
<stop offset="1" stop-color="#4DFFC9"/>
</linearGradient>
</defs>
</svg>
