<svg width="36" height="36" viewBox="0 0 36 36" fill="none" xmlns="http://www.w3.org/2000/svg">
<path fill-rule="evenodd" clip-rule="evenodd" d="M27.2208 21.46L26.8887 24.0903L22.286 23.5092L22.6168 20.8896C21.7262 20.484 20.9366 19.897 20.2486 19.1283L17.7822 20.1915L15.9093 16.0182L18.387 14.9566C18.3601 14.6964 18.3492 14.4276 18.3541 14.1497C18.3606 13.9817 18.3704 13.8142 18.384 13.6475C18.3959 13.5535 18.4081 13.4564 18.4209 13.355C18.491 12.7997 18.6138 12.2724 18.7889 11.7738L16.6514 10.1407L19.5029 6.56359L21.6498 8.20952C22.4981 7.64941 23.4006 7.27959 24.3578 7.09972L24.6886 4.48017L29.2912 5.06129L28.9605 7.68083C29.4545 7.91201 29.9194 8.19815 30.3548 8.53875C30.4837 8.64298 30.6123 8.75073 30.74 8.86236C30.9342 9.04102 31.1235 9.22973 31.3079 9.42892L33.8075 8.36965L35.6804 12.5432L33.1917 13.6039C33.2383 14.1228 33.2264 14.6601 33.1563 15.2155C33.087 15.7642 32.9655 16.2837 32.7913 16.7752L34.9383 18.4207L32.0869 21.9976L29.9399 20.3519C29.0907 20.919 28.1844 21.2885 27.2208 21.46ZM26.4548 17.6685C26.9209 17.5879 27.3581 17.4121 27.766 17.1411C27.8313 17.0983 27.8929 17.055 27.9508 17.0107C28.5379 16.5642 28.9337 16.0056 29.138 15.3349C29.2002 15.138 29.2445 14.9343 29.2709 14.7249C29.2827 14.6313 29.2905 14.5408 29.2941 14.4533C29.3023 14.3295 29.3031 14.2048 29.2964 14.0796C29.2936 14.0428 29.2913 14.0021 29.2894 13.9578C29.2353 13.3202 28.9922 12.7289 28.5603 12.1831C28.5152 12.1259 28.4663 12.0686 28.4138 12.0109C28.0796 11.6386 27.6967 11.3553 27.2652 11.1618C26.9469 11.019 26.5999 10.9237 26.2247 10.8763C26.173 10.8697 26.1179 10.8628 26.059 10.8554C25.7482 10.8308 25.4437 10.8439 25.1458 10.8942C24.6724 10.9735 24.2274 11.1523 23.8111 11.4298C23.7533 11.4736 23.6954 11.5173 23.6375 11.5616C23.3978 11.7436 23.1891 11.9447 23.0119 12.1644C22.7558 12.4764 22.569 12.8304 22.4516 13.226C22.3895 13.4238 22.3446 13.6305 22.3172 13.8469C22.2899 14.0638 22.2789 14.2712 22.2835 14.4695C22.322 15.1709 22.5701 15.8108 23.028 16.3892C23.0731 16.4464 23.1188 16.4993 23.1647 16.5495C23.1712 16.5574 23.1777 16.5654 23.1841 16.5737C23.2955 16.698 23.4085 16.8108 23.5224 16.9136C23.7666 17.1128 24.0264 17.274 24.3024 17.3968C24.6272 17.548 24.9809 17.6473 25.3637 17.6956C25.7463 17.7439 26.11 17.7352 26.4548 17.6685Z" fill="url(#paint0_linear_798_20669)"/>
<path d="M12.1456 10.4903L12.1455 10.4904C12.202 10.5831 12.2528 10.6786 12.2977 10.7765C12.3312 10.8454 12.3623 10.9173 12.3911 10.9919C12.4567 11.1616 12.5068 11.3351 12.5405 11.5115C12.6617 12.114 12.5869 12.7092 12.3243 13.288C12.2976 13.347 12.2682 13.4057 12.2367 13.4641C12.0381 13.8362 11.7768 14.1514 11.4531 14.4062C11.2138 14.6014 10.9392 14.757 10.6328 14.8755C10.326 14.9941 10.0161 15.0645 9.70359 15.0832C9.44094 15.1029 9.17642 15.0865 8.91063 15.0354L8.90279 15.0339L8.89505 15.0321C8.76844 15.0011 8.63879 14.9624 8.50626 14.9147L8.49481 14.9106L8.4837 14.9056L8.47752 14.903C8.42465 14.8844 8.36982 14.8634 8.31303 14.8388M12.1456 10.4903L6.87958 12.5961M12.1456 10.4903L12.1414 10.4839C12.1283 10.4635 12.1137 10.4397 12.0975 10.4125L12.0977 10.4124L12.0904 10.4012C11.7811 9.92822 11.3458 9.57489 10.7973 9.3385C10.7378 9.31275 10.6766 9.28909 10.6139 9.26704M12.1456 10.4903L6.78599 10.8895M8.31303 14.8388C8.31292 14.8388 8.31282 14.8387 8.31271 14.8387L8.43957 14.5458L8.31334 14.8389C8.31324 14.8389 8.31313 14.8388 8.31303 14.8388ZM8.31303 14.8388C7.72962 14.5875 7.27186 14.1989 6.95086 13.6747L6.94561 13.6661L6.94575 13.666C6.86107 13.5174 6.78547 13.3571 6.71896 13.1851C6.65158 13.0109 6.60086 12.8356 6.56668 12.659M6.56668 12.659C6.56685 12.6598 6.56701 12.6606 6.56718 12.6614L6.87958 12.5961M6.56668 12.659C6.56652 12.6581 6.56636 12.6573 6.5662 12.6565L6.87958 12.5961M6.56668 12.659C6.49322 12.3059 6.48974 11.9533 6.55779 11.6041M6.87958 12.5961C6.81403 12.2824 6.81117 11.9716 6.87128 11.6639M6.55779 11.6041C6.5577 11.6045 6.55762 11.605 6.55753 11.6055L6.87128 11.6639M6.55779 11.6041C6.60298 11.3622 6.67951 11.1238 6.78599 10.8895M6.55779 11.6041C6.55788 11.6036 6.55797 11.6032 6.55806 11.6027L6.87128 11.6639M6.87128 11.6639L6.78599 10.8895M6.78599 10.8895C6.78593 10.8896 6.78588 10.8898 6.78582 10.8899L7.0767 11.0212L6.78617 10.8891C6.78611 10.8892 6.78605 10.8894 6.78599 10.8895ZM6.78599 10.8895C6.80943 10.8376 6.83295 10.7861 6.85614 10.7353L6.85648 10.7346L6.86045 10.7259L6.86493 10.7174C7.06724 10.3365 7.33409 10.0149 7.66552 9.75734M7.66552 9.75734L7.8617 10.0091L7.66591 9.75704C7.66578 9.75714 7.66565 9.75724 7.66552 9.75734ZM7.66552 9.75734C7.87182 9.59657 8.09784 9.46202 8.34273 9.35393L8.34954 9.35093L8.35649 9.34824L8.35674 9.34814L8.35699 9.34805L8.35725 9.34795L8.3575 9.34785L8.35775 9.34775L8.358 9.34766L8.35825 9.34756L8.3585 9.34746L8.35875 9.34737L8.35901 9.34727L8.35926 9.34717L8.35951 9.34707L8.35976 9.34698L8.36001 9.34688L8.36026 9.34678L8.36051 9.34669L8.36076 9.34659L8.36101 9.34649L8.36126 9.3464L8.36151 9.3463L8.36176 9.3462L8.36201 9.34611L8.36227 9.34601L8.36252 9.34591L8.36277 9.34582L8.36302 9.34572L8.36327 9.34562L8.36352 9.34552L8.36377 9.34543L8.36402 9.34533L8.36427 9.34524L8.36452 9.34514L8.36477 9.34504L8.36502 9.34495L8.36526 9.34485L8.36551 9.34475L8.36576 9.34466L8.36601 9.34456L8.36626 9.34446L8.36651 9.34437L8.36676 9.34427L8.36701 9.34417L8.36726 9.34408L8.36751 9.34398L8.36776 9.34388L8.36801 9.34379L8.36826 9.34369L8.3685 9.3436L8.36875 9.3435L8.369 9.3434L8.36925 9.34331L8.3695 9.34321L8.36975 9.34312L8.37 9.34302L8.37024 9.34292L8.37049 9.34283L8.37074 9.34273L8.37099 9.34264L8.37124 9.34254L8.37148 9.34244L8.37173 9.34235L8.37198 9.34225L8.37223 9.34216L8.37248 9.34206L8.37272 9.34196L8.37297 9.34187L8.37322 9.34177L8.37347 9.34168L8.37371 9.34158L8.37396 9.34149L8.37421 9.34139L8.37446 9.34129L8.3747 9.3412L8.37495 9.3411L8.3752 9.34101L8.37544 9.34091L8.37569 9.34082L8.37594 9.34072L8.37619 9.34063L8.37643 9.34053L8.37668 9.34043L8.37693 9.34034L8.37717 9.34024L8.37742 9.34015L8.37767 9.34005L8.37791 9.33996L8.37816 9.33986L8.3784 9.33977L8.37865 9.33967L8.3789 9.33958L8.37914 9.33948L8.37939 9.33939L8.37964 9.33929L8.37988 9.3392L8.38013 9.3391L8.38037 9.33901L8.38062 9.33891L8.38086 9.33882L8.38111 9.33872L8.38136 9.33863L8.3816 9.33853L8.38185 9.33844L8.38209 9.33834L8.38234 9.33825L8.38258 9.33815L8.38283 9.33806L8.38307 9.33796L8.38332 9.33787L8.38356 9.33777L8.38381 9.33768L8.38405 9.33758L8.3843 9.33749L8.38454 9.33739L8.38479 9.3373L8.38503 9.33721L8.38528 9.33711L8.38552 9.33702L8.38577 9.33692L8.38601 9.33683L8.38625 9.33673L8.3865 9.33664L8.38674 9.33654L8.38699 9.33645L8.38723 9.33636L8.38747 9.33626L8.38772 9.33617L8.38796 9.33607L8.38821 9.33598L8.38845 9.33588L8.38869 9.33579L8.38894 9.3357L8.38918 9.3356L8.38942 9.33551L8.38967 9.33541L8.38991 9.33532L8.39015 9.33522L8.3904 9.33513L8.39064 9.33504L8.39088 9.33494L8.39113 9.33485L8.39137 9.33475L8.39161 9.33466L8.39186 9.33457L8.3921 9.33447L8.39234 9.33438L8.39258 9.33428L8.39283 9.33419L8.39307 9.3341L8.39331 9.334L8.39356 9.33391L8.3938 9.33382L8.39404 9.33372L8.39428 9.33363L8.39452 9.33353L8.39477 9.33344L8.39501 9.33335L8.39525 9.33325L8.39549 9.33316L8.39573 9.33307L8.39598 9.33297L8.39622 9.33288L8.39646 9.33279L8.3967 9.33269L8.39694 9.3326L8.39719 9.33251L8.39743 9.33241L8.39767 9.33232L8.39791 9.33223L8.39815 9.33213L8.39839 9.33204L8.39863 9.33195L8.39887 9.33185L8.39912 9.33176L8.39936 9.33167L8.3996 9.33157L8.39984 9.33148L8.40008 9.33139L8.40032 9.33129L8.40056 9.3312L8.4008 9.33111L8.40104 9.33101L8.40128 9.33092L8.40152 9.33083L8.40176 9.33074L8.402 9.33064L8.40224 9.33055L8.40248 9.33046L8.40272 9.33036L8.40296 9.33027L8.4032 9.33018L8.40344 9.33009L8.40368 9.32999L8.40392 9.3299L8.40416 9.32981L8.4044 9.32971L8.40464 9.32962L8.40488 9.32953L8.40512 9.32944L8.40536 9.32934L8.4056 9.32925L8.40584 9.32916L8.40608 9.32907L8.40632 9.32897L8.40656 9.32888L8.4068 9.32879L8.40704 9.3287L8.40728 9.3286L8.40752 9.32851L8.40775 9.32842L8.40799 9.32833L8.40823 9.32823L8.40847 9.32814L8.40871 9.32805L8.40895 9.32796L8.40919 9.32787L8.40942 9.32777L8.40966 9.32768L8.4099 9.32759L8.41014 9.3275L8.41038 9.3274L8.41062 9.32731L8.41085 9.32722L8.41109 9.32713L8.41133 9.32704L8.41157 9.32694L8.41181 9.32685L8.41204 9.32676L8.41228 9.32667L8.41252 9.32658L8.41276 9.32648L8.41299 9.32639L8.41323 9.3263L8.41347 9.32621L8.41371 9.32612L8.41394 9.32603L8.41418 9.32593L8.41442 9.32584L8.41466 9.32575L8.41489 9.32566L8.41513 9.32557L8.41537 9.32548L8.4156 9.32538L8.41584 9.32529L8.41608 9.3252L8.41631 9.32511L8.41655 9.32502L8.41679 9.32493L8.41702 9.32483L8.41726 9.32474L8.4175 9.32465L8.41773 9.32456L8.41797 9.32447L8.41821 9.32438L8.41844 9.32429L8.41868 9.32419L8.41891 9.3241L8.41915 9.32401L8.41939 9.32392L8.41962 9.32383L8.41986 9.32374L8.42009 9.32365L8.42033 9.32356L8.42057 9.32347L8.4208 9.32337L8.42104 9.32328L8.42127 9.32319L8.42151 9.3231L8.42174 9.32301L8.42198 9.32292L8.42221 9.32283L8.42245 9.32274L8.42268 9.32265L8.42292 9.32256L8.42315 9.32246L8.42339 9.32237L8.42362 9.32228L8.42386 9.32219L8.42409 9.3221L8.42433 9.32201L8.42456 9.32192L8.4248 9.32183L8.42503 9.32174L8.42527 9.32165L8.4255 9.32156L8.42574 9.32147L8.42597 9.32138L8.4262 9.32129L8.42644 9.32119L8.42667 9.3211L8.42691 9.32101L8.42714 9.32092L8.42737 9.32083L8.42761 9.32074L8.42784 9.32065L8.42808 9.32056L8.42831 9.32047L8.42854 9.32038L8.42878 9.32029L8.42901 9.3202L8.42924 9.32011L8.42948 9.32002L8.42971 9.31993L8.42994 9.31984L8.43018 9.31975L8.43041 9.31966L8.43064 9.31957L8.43088 9.31948L8.43111 9.31939L8.43134 9.3193L8.43158 9.31921L8.43181 9.31912L8.43204 9.31903L8.43227 9.31894L8.43251 9.31885L8.43274 9.31876L8.43297 9.31867L8.4332 9.31858L8.43344 9.31849L8.43367 9.3184L8.4339 9.31831L8.43413 9.31822L8.43437 9.31813L8.4346 9.31804L8.43483 9.31795L8.43506 9.31786L8.43529 9.31777L8.43553 9.31768L8.43576 9.31759L8.43599 9.3175L8.43622 9.31741L8.43645 9.31732L8.43668 9.31723L8.43692 9.31714L8.43715 9.31705L8.43738 9.31696L8.43761 9.31687L8.43784 9.31679L8.43807 9.3167L8.4383 9.31661L8.43853 9.31652L8.43877 9.31643L8.439 9.31634L8.43923 9.31625L8.43946 9.31616L8.43969 9.31607L8.43992 9.31598L8.44015 9.31589L8.44038 9.3158L8.44061 9.31571L8.44084 9.31562L8.44107 9.31554L8.4413 9.31545L8.44153 9.31536L8.44176 9.31527L8.44199 9.31518L8.44222 9.31509L8.44245 9.315L8.44268 9.31491L8.44292 9.31482L8.44315 9.31473L8.44337 9.31465L8.4436 9.31456L8.44383 9.31447L8.44406 9.31438L8.44429 9.31429L8.44452 9.3142L8.44475 9.31411L8.44498 9.31402L8.44521 9.31394L8.44544 9.31385L8.44567 9.31376L8.4459 9.31367L8.44613 9.31358L8.44636 9.31349L8.44659 9.3134L8.44682 9.31331L8.44705 9.31323L8.44727 9.31314L8.4475 9.31305L8.44773 9.31296L8.44796 9.31287L8.44819 9.31278L8.44842 9.3127L8.44865 9.31261L8.44888 9.31252L8.4491 9.31243L8.44933 9.31234L8.44956 9.31225L8.44979 9.31217L8.45002 9.31208L8.45024 9.31199L8.45047 9.3119L8.4507 9.31181L8.45093 9.31172L8.45116 9.31164L8.45138 9.31155L8.45161 9.31146L8.45184 9.31137L8.45207 9.31128L8.4523 9.3112L8.45252 9.31111L8.45275 9.31102L8.45298 9.31093L8.45321 9.31084L8.45343 9.31076L8.45366 9.31067L8.45389 9.31058L8.45412 9.31049L8.45434 9.3104L8.45457 9.31032L8.4548 9.31023L8.45502 9.31014L8.45525 9.31005L8.45548 9.30997L8.4557 9.30988L8.45593 9.30979L8.45616 9.3097L8.45638 9.30962L8.45661 9.30953L8.45684 9.30944L8.45706 9.30935L8.45729 9.30926L8.45752 9.30918L8.45774 9.30909L8.45797 9.309L8.45819 9.30891L8.45842 9.30883L8.45865 9.30874L8.45887 9.30865L8.4591 9.30857L8.45932 9.30848L8.45955 9.30839L8.45978 9.3083L8.46 9.30822L8.46023 9.30813L8.46045 9.30804L8.46068 9.30795L8.4609 9.30787L8.46113 9.30778L8.46135 9.30769L8.46158 9.30761L8.46181 9.30752L8.46203 9.30743L8.46226 9.30734L8.46248 9.30726L8.46271 9.30717L8.46293 9.30708L8.46316 9.307L8.46338 9.30691L8.46361 9.30682L8.46383 9.30674L8.46405 9.30665L8.46428 9.30656L8.4645 9.30648L8.46473 9.30639L8.46495 9.3063L8.46518 9.30621L8.4654 9.30613L8.46563 9.30604L8.46585 9.30595L8.46607 9.30587L8.4663 9.30578L8.46652 9.30569L8.46675 9.30561L8.46697 9.30552L8.46719 9.30544L8.46742 9.30535L8.46764 9.30526L8.46787 9.30518L8.46809 9.30509L8.46831 9.305L8.46854 9.30492L8.46876 9.30483L8.46898 9.30474L8.46921 9.30466L8.46943 9.30457L8.46965 9.30448L8.46988 9.3044L8.4701 9.30431L8.47032 9.30423L8.47055 9.30414L8.47077 9.30405L8.47099 9.30397L8.47121 9.30388L8.47144 9.30379L8.47166 9.30371L8.47188 9.30362L8.47211 9.30354L8.47233 9.30345L8.47255 9.30336L8.47277 9.30328L8.473 9.30319L8.47322 9.30311L8.47344 9.30302L8.47366 9.30293L8.47388 9.30285L8.47411 9.30276L8.47433 9.30268L8.47455 9.30259L8.47477 9.3025L8.475 9.30242L8.47522 9.30233L8.47544 9.30225L8.47566 9.30216L8.47588 9.30208L8.4761 9.30199L8.47633 9.3019L8.47655 9.30182L8.47677 9.30173L8.47699 9.30165L8.47721 9.30156L8.47743 9.30148C8.77845 9.18508 9.08164 9.11466 9.38576 9.09246C9.7989 9.06226 10.2092 9.12194 10.6139 9.26704M10.6139 9.26704C10.6142 9.26716 10.6146 9.26729 10.6149 9.26741L10.5071 9.56779L10.6129 9.2667C10.6133 9.26682 10.6136 9.26693 10.6139 9.26704ZM12.9763 16.2164L12.7923 16.3625L12.877 16.5816L13.5044 18.2042L10.7394 19.2734L10.115 17.6585L10.0303 17.4394L9.79594 17.4552C9.08399 17.5031 8.37202 17.4001 7.65765 17.1424L7.44156 17.0644L7.29905 17.2446L6.20018 18.6339L3.88868 16.8606L4.98903 15.4758L5.1352 15.2918L5.00296 15.0976C4.89693 14.9419 4.79742 14.7743 4.70432 14.5943C4.65028 14.484 4.5986 14.3731 4.54966 14.2618L4.54959 14.2616L4.54944 14.2612L4.54928 14.2608L4.54913 14.2604L4.54897 14.26L4.54881 14.2596L4.54866 14.2592L4.5485 14.2588L4.54835 14.2584L4.54819 14.258L4.54803 14.2576L4.54788 14.2572L4.54772 14.2568L4.54757 14.2564L4.54741 14.256L4.54725 14.2556L4.5471 14.2552L4.54694 14.2548L4.54679 14.2544L4.54663 14.254L4.54647 14.2536L4.54632 14.2531L4.54616 14.2527L4.546 14.2523L4.54585 14.2519L4.54569 14.2515L4.54554 14.2511L4.54538 14.2507L4.54522 14.2503L4.54507 14.2499L4.54491 14.2495L4.54475 14.2491L4.5446 14.2487L4.54444 14.2483L4.54428 14.2479L4.54413 14.2475L4.54397 14.2471L4.54381 14.2467L4.54366 14.2463L4.5435 14.2459L4.54334 14.2455L4.54319 14.2451L4.54303 14.2446L4.54287 14.2442L4.54272 14.2438L4.54256 14.2434L4.5424 14.243L4.54225 14.2426L4.54209 14.2422L4.54193 14.2418L4.54178 14.2414L4.54162 14.241L4.54146 14.2406L4.54131 14.2402L4.54115 14.2398L4.54099 14.2394L4.54083 14.239L4.54068 14.2386L4.54052 14.2382L4.54036 14.2378L4.54021 14.2373L4.54005 14.2369L4.53989 14.2365L4.53974 14.2361L4.53958 14.2357L4.53942 14.2353L4.53926 14.2349L4.53911 14.2345L4.53895 14.2341L4.53879 14.2337L4.53863 14.2333L4.53848 14.2329L4.53832 14.2325L4.53816 14.2321L4.53801 14.2317L4.53785 14.2312L4.53769 14.2308L4.53753 14.2304L4.53738 14.23L4.53722 14.2296L4.53706 14.2292L4.5369 14.2288L4.53675 14.2284L4.53659 14.228L4.53643 14.2276L4.53627 14.2272L4.53612 14.2268L4.53596 14.2264L4.5358 14.2259L4.53564 14.2255L4.53548 14.2251L4.53533 14.2247L4.53517 14.2243L4.53501 14.2239L4.53485 14.2235L4.5347 14.2231L4.53454 14.2227L4.53438 14.2223L4.53422 14.2219L4.53406 14.2215L4.53391 14.2211L4.53375 14.2206L4.53359 14.2202L4.53343 14.2198L4.53327 14.2194L4.53312 14.219L4.53296 14.2186L4.5328 14.2182L4.53264 14.2178L4.53248 14.2174L4.53233 14.217L4.53217 14.2166L4.53201 14.2161L4.53185 14.2157L4.53169 14.2153L4.53154 14.2149L4.53138 14.2145L4.53122 14.2141L4.53106 14.2137L4.5309 14.2133L4.53074 14.2129L4.53059 14.2125L4.53043 14.2121L4.53027 14.2116L4.53011 14.2112L4.52995 14.2108L4.52979 14.2104L4.52963 14.21L4.52948 14.2096L4.52932 14.2092L4.52916 14.2088L4.529 14.2084L4.52884 14.208L4.52868 14.2075L4.52852 14.2071L4.52837 14.2067L4.52821 14.2063L4.52805 14.2059L4.52789 14.2055L4.52773 14.2051L4.52757 14.2047L4.52741 14.2043L4.52725 14.2038L4.5271 14.2034L4.52694 14.203L4.52678 14.2026L4.52662 14.2022L4.52646 14.2018L4.5263 14.2014L4.52614 14.201L4.52598 14.2006L4.52582 14.2001L4.52566 14.1997L4.52551 14.1993L4.52535 14.1989L4.52519 14.1985L4.52503 14.1981L4.52487 14.1977L4.52471 14.1973L4.52455 14.1969L4.52439 14.1964L4.52423 14.196L4.52407 14.1956L4.52391 14.1952L4.52375 14.1948L4.52359 14.1944L4.52344 14.194L4.52328 14.1936L4.52312 14.1931L4.52296 14.1927L4.5228 14.1923L4.52264 14.1919L4.52248 14.1915L4.52232 14.1911L4.52216 14.1907L4.522 14.1903L4.52184 14.1898L4.52168 14.1894L4.52152 14.189L4.52136 14.1886L4.5212 14.1882L4.52104 14.1878L4.52088 14.1874L4.52072 14.187L4.52056 14.1865L4.5204 14.1861L4.52024 14.1857L4.52008 14.1853L4.51992 14.1849L4.51976 14.1845L4.5196 14.1841L4.51944 14.1836L4.51928 14.1832L4.51912 14.1828L4.51896 14.1824L4.5188 14.182L4.51864 14.1816L4.51848 14.1812L4.51832 14.1807L4.51816 14.1803L4.518 14.1799L4.51784 14.1795L4.51768 14.1791L4.51752 14.1787L4.51736 14.1783L4.5172 14.1778L4.51704 14.1774L4.51688 14.177L4.51672 14.1766L4.51656 14.1762L4.5164 14.1758L4.51624 14.1754L4.51608 14.1749L4.51592 14.1745L4.51576 14.1741L4.5156 14.1737L4.51544 14.1733L4.51528 14.1729L4.51512 14.1725L4.51495 14.172L4.51479 14.1716L4.51463 14.1712L4.51447 14.1708L4.51431 14.1704L4.51415 14.17L4.51399 14.1695L4.51383 14.1691L4.51367 14.1687L4.51351 14.1683L4.51335 14.1679L4.51319 14.1675L4.51303 14.167L4.51286 14.1666L4.5127 14.1662L4.51254 14.1658L4.51238 14.1654L4.51222 14.165L4.51206 14.1646L4.5119 14.1641L4.51174 14.1637L4.51158 14.1633L4.51142 14.1629L4.51125 14.1625L4.51109 14.1621L4.51093 14.1616L4.51077 14.1612L4.51061 14.1608L4.51045 14.1604L4.51029 14.16L4.51013 14.1595L4.50996 14.1591L4.5098 14.1587L4.50964 14.1583L4.50948 14.1579L4.50932 14.1575L4.50916 14.157L4.50899 14.1566L4.50883 14.1562L4.50867 14.1558L4.50851 14.1554L4.50835 14.155L4.50819 14.1545L4.50803 14.1541L4.50786 14.1537L4.5077 14.1533L4.50754 14.1529L4.50738 14.1524L4.50722 14.152L4.50706 14.1516L4.50689 14.1512L4.50673 14.1508L4.50657 14.1504L4.50641 14.1499L4.50625 14.1495L4.50608 14.1491L4.50592 14.1487L4.50576 14.1483L4.5056 14.1478L4.50544 14.1474L4.50527 14.147L4.50511 14.1466L4.50495 14.1462L4.50479 14.1457L4.50463 14.1453L4.50446 14.1449L4.5043 14.1445L4.50414 14.1441L4.50398 14.1436L4.50381 14.1432L4.50365 14.1428L4.50349 14.1424L4.50333 14.142L4.50316 14.1415L4.503 14.1411L4.50284 14.1407L4.50268 14.1403L4.50251 14.1399L4.50235 14.1394L4.50219 14.139L4.50203 14.1386L4.50186 14.1382L4.5017 14.1378L4.50154 14.1373L4.50138 14.1369L4.50121 14.1365L4.50105 14.1361L4.50089 14.1357L4.50073 14.1352L4.50056 14.1348L4.5004 14.1344L4.50024 14.134L4.50007 14.1336L4.49991 14.1331L4.49975 14.1327L4.49959 14.1323L4.49942 14.1319L4.49926 14.1314L4.4991 14.131L4.49893 14.1306L4.49877 14.1302L4.49861 14.1298L4.49844 14.1293L4.49828 14.1289L4.49812 14.1285L4.49795 14.1281L4.49779 14.1277L4.49763 14.1272L4.49746 14.1268L4.4973 14.1264L4.49714 14.126L4.49698 14.1255L4.49681 14.1251L4.49665 14.1247L4.49648 14.1243L4.49632 14.1239L4.49616 14.1234L4.49599 14.123L4.49583 14.1226L4.49567 14.1222L4.4955 14.1217L4.49534 14.1213L4.49518 14.1209L4.49501 14.1205L4.49485 14.12L4.49469 14.1196L4.49452 14.1192L4.49436 14.1188L4.49419 14.1183L4.49403 14.1179L4.49387 14.1175L4.4937 14.1171L4.49354 14.1167L4.49337 14.1162L4.49321 14.1158L4.49305 14.1154L4.49288 14.115L4.49272 14.1145L4.49255 14.1141L4.49239 14.1137L4.49223 14.1133L4.49206 14.1128L4.4919 14.1124L4.49173 14.112L4.49157 14.1116L4.49141 14.1111L4.49124 14.1107L4.49108 14.1103L4.49091 14.1099L4.49075 14.1094L4.49058 14.109L4.49042 14.1086L4.49026 14.1082L4.49009 14.1077L4.48993 14.1073L4.48976 14.1069L4.4896 14.1065L4.48943 14.106L4.48927 14.1056L4.4891 14.1052L4.48894 14.1048L4.48877 14.1043L4.48861 14.1039L4.48845 14.1035L4.48828 14.1031L4.48812 14.1026L4.48795 14.1022L4.48779 14.1018L4.48762 14.1014L4.48746 14.1009L4.48729 14.1005L4.48713 14.1001L4.48696 14.0996L4.4868 14.0992L4.48663 14.0988L4.48647 14.0984L4.4863 14.0979L4.48614 14.0975L4.48597 14.0971L4.48581 14.0967L4.48564 14.0962L4.48548 14.0958L4.48531 14.0954L4.48515 14.0949L4.48498 14.0945L4.48482 14.0941L4.48465 14.0937L4.48448 14.0932L4.48432 14.0928L4.48415 14.0924L4.48399 14.092L4.48382 14.0915L4.48366 14.0911L4.48349 14.0907L4.48333 14.0902L4.48316 14.0898L4.483 14.0894L4.48283 14.089L4.48266 14.0885L4.4825 14.0881L4.48233 14.0877L4.48217 14.0872L4.482 14.0868L4.48184 14.0864L4.48167 14.086L4.4815 14.0855L4.48134 14.0851L4.48117 14.0847L4.48101 14.0842L4.48084 14.0838L4.48067 14.0834L4.48051 14.083L4.48034 14.0825L4.48018 14.0821L4.48001 14.0817L4.47984 14.0812L4.47968 14.0808L4.47951 14.0804L4.47935 14.0799L4.47918 14.0795L4.47901 14.0791L4.47885 14.0787L4.47868 14.0782L4.47851 14.0778L4.47835 14.0774L4.47818 14.0769L4.47802 14.0765L4.47785 14.0761L4.47768 14.0756L4.47752 14.0752L4.47735 14.0748L4.47718 14.0744L4.47702 14.0739L4.47685 14.0735L4.47668 14.0731L4.47652 14.0726L4.47635 14.0722L4.47618 14.0718L4.47602 14.0713L4.47585 14.0709L4.47568 14.0705L4.47552 14.07L4.47535 14.0696L4.47518 14.0692L4.47502 14.0688L4.47485 14.0683L4.47468 14.0679L4.47451 14.0675L4.47435 14.067L4.47418 14.0666L4.47401 14.0662L4.47385 14.0657L4.47368 14.0653L4.47351 14.0649L4.47335 14.0644L4.47318 14.064L4.47301 14.0636L4.47284 14.0631L4.47268 14.0627L4.47251 14.0623L4.47234 14.0618L4.47217 14.0614L4.47201 14.061L4.47184 14.0605L4.47167 14.0601L4.4715 14.0597L4.47134 14.0592L4.47117 14.0588L4.471 14.0584L4.47083 14.0579L4.47067 14.0575L4.4705 14.0571L4.47033 14.0566L4.47016 14.0562L4.47 14.0558L4.46983 14.0553L4.46966 14.0549C4.32057 13.6693 4.21626 13.2855 4.15589 12.9037L4.11969 12.6748L3.89084 12.6384L2.14951 12.3612L2.66666 9.49379L4.43172 9.77773L4.6561 9.81382L4.7636 9.61358C5.11781 8.95378 5.57154 8.40188 6.12514 7.95393L6.30593 7.80765L6.22206 7.59073L5.59764 5.97591L8.36262 4.90676L8.98703 6.52158L9.07084 6.73833L9.30285 6.72511C9.70051 6.70246 10.0988 6.7251 10.4977 6.7931C10.6184 6.81579 10.7399 6.84075 10.8618 6.86844C11.0507 6.91663 11.2402 6.97306 11.4304 7.03808L11.6425 7.11062L11.7827 6.93563L12.9055 5.53411L15.2181 7.30835L14.1107 8.69644L13.966 8.87786L14.094 9.07146C14.3036 9.38851 14.4833 9.73954 14.6324 10.1252C14.7796 10.5058 14.8817 10.8836 14.9401 11.2598L14.9757 11.4891L15.2049 11.5259L16.9578 11.8077L16.4405 14.6754L14.6755 14.3916L14.4499 14.3553L14.3429 14.5572C13.9911 15.2207 13.5357 15.7726 12.9763 16.2164Z" stroke="black" stroke-width="0.638298"/>
<path d="M17.7228 28.1479L18.0053 28.2963C18.2658 27.8005 18.3623 27.2796 18.2862 26.7421C18.2655 26.585 18.2302 26.4297 18.1811 26.277C18.1595 26.2101 18.1359 26.1453 18.1099 26.0828C18.0753 25.9943 18.0354 25.9076 17.9904 25.8231L17.9905 25.8231L16.718 25.0245L16.8616 24.7395C16.8615 24.7394 16.8614 24.7394 16.8613 24.7393C16.8101 24.7136 16.7573 24.6896 16.7034 24.6671M17.7228 28.1479L18.0056 28.2958C17.9789 28.3468 17.9499 28.3972 17.9191 28.4471C17.7256 28.7643 17.4794 29.0286 17.1813 29.2367C16.9602 29.3966 16.7104 29.5196 16.4352 29.6081C16.1597 29.6967 15.8833 29.743 15.607 29.7436C15.3745 29.7476 15.1425 29.7196 14.9113 29.6612L14.9036 29.6592L14.896 29.6569C14.7864 29.6233 14.6745 29.5827 14.5607 29.5342L14.5495 29.5294L14.5387 29.5238L14.5356 29.5223C14.4904 29.5033 14.4434 29.4822 14.3949 29.4578C13.8943 29.207 13.5104 28.8412 13.254 28.3626L13.2493 28.3537L13.2494 28.3537C13.1825 28.2186 13.1242 28.0739 13.0746 27.9197C13.0242 27.763 12.9885 27.6062 12.9673 27.4489C12.9206 27.134 12.9355 26.8227 13.0134 26.518C13.0655 26.3072 13.145 26.1012 13.2505 25.9008C13.2735 25.8569 13.2964 25.8134 13.3191 25.7706L13.3194 25.7699L13.3239 25.7615L13.3288 25.7533C13.5263 25.4283 13.7779 25.1583 14.0833 24.9482M17.7228 28.1479C17.7 28.1914 17.6747 28.2355 17.6471 28.2802L17.8139 26.2022C17.8367 26.2567 17.8578 26.3142 17.8772 26.3747C17.9208 26.5103 17.9519 26.6473 17.97 26.7854C18.0365 27.2534 17.9541 27.7076 17.7228 28.1479ZM14.0833 24.9482L14.2643 25.2111L14.0829 24.9484C14.0831 24.9483 14.0832 24.9482 14.0833 24.9482ZM14.0833 24.9482C14.273 24.8172 14.4786 24.7104 14.6993 24.6279L14.7063 24.6253L14.7134 24.623L14.7136 24.623L14.7138 24.6229L14.714 24.6228L14.7143 24.6227L14.7145 24.6227L14.7147 24.6226L14.7149 24.6225L14.7152 24.6225L14.7154 24.6224L14.7156 24.6223L14.7158 24.6222L14.7161 24.6222L14.7163 24.6221L14.7165 24.622L14.7167 24.622L14.7169 24.6219L14.7172 24.6218L14.7174 24.6217L14.7176 24.6217L14.7178 24.6216L14.718 24.6215L14.7183 24.6214L14.7185 24.6214L14.7187 24.6213L14.7189 24.6212L14.7192 24.6212L14.7194 24.6211L14.7196 24.621L14.7198 24.621L14.72 24.6209L14.7203 24.6208L14.7205 24.6207L14.7207 24.6207L14.7209 24.6206L14.7212 24.6205L14.7214 24.6205L14.7216 24.6204L14.7218 24.6203L14.722 24.6202L14.7223 24.6202L14.7225 24.6201L14.7227 24.62L14.7229 24.62L14.7231 24.6199L14.7234 24.6198L14.7236 24.6197L14.7238 24.6197L14.724 24.6196L14.7242 24.6195L14.7245 24.6195L14.7247 24.6194L14.7249 24.6193L14.7251 24.6192L14.7253 24.6192L14.7256 24.6191L14.7258 24.619L14.726 24.619L14.7262 24.6189L14.7264 24.6188L14.7267 24.6188L14.7269 24.6187L14.7271 24.6186L14.7273 24.6185L14.7275 24.6185L14.7278 24.6184L14.728 24.6183L14.7282 24.6183L14.7284 24.6182L14.7286 24.6181L14.7289 24.618L14.7291 24.618L14.7293 24.6179L14.7295 24.6178L14.7297 24.6178L14.73 24.6177L14.7302 24.6176L14.7304 24.6176L14.7306 24.6175L14.7308 24.6174L14.731 24.6173L14.7313 24.6173L14.7315 24.6172L14.7317 24.6171L14.7319 24.6171L14.7321 24.617L14.7324 24.6169L14.7326 24.6168L14.7328 24.6168L14.733 24.6167L14.7332 24.6166L14.7335 24.6166L14.7337 24.6165L14.7339 24.6164L14.7341 24.6164L14.7343 24.6163L14.7345 24.6162L14.7348 24.6161L14.735 24.6161L14.7352 24.616L14.7354 24.6159L14.7356 24.6159L14.7358 24.6158L14.7361 24.6157L14.7363 24.6157L14.7365 24.6156L14.7367 24.6155L14.7369 24.6154L14.7371 24.6154L14.7374 24.6153L14.7376 24.6152L14.7378 24.6152L14.738 24.6151L14.7382 24.615L14.7385 24.615L14.7387 24.6149L14.7389 24.6148L14.7391 24.6147L14.7393 24.6147L14.7395 24.6146L14.7398 24.6145L14.74 24.6145L14.7402 24.6144L14.7404 24.6143L14.7406 24.6143L14.7408 24.6142L14.741 24.6141L14.7413 24.6141L14.7415 24.614L14.7417 24.6139L14.7419 24.6138L14.7421 24.6138L14.7423 24.6137L14.7426 24.6136L14.7428 24.6136L14.743 24.6135L14.7432 24.6134L14.7434 24.6134L14.7436 24.6133L14.7439 24.6132L14.7441 24.6132L14.7443 24.6131L14.7445 24.613L14.7447 24.6129L14.7449 24.6129L14.7451 24.6128L14.7454 24.6127L14.7456 24.6127L14.7458 24.6126L14.746 24.6125L14.7462 24.6125L14.7464 24.6124L14.7467 24.6123L14.7469 24.6123L14.7471 24.6122L14.7473 24.6121L14.7475 24.612L14.7477 24.612L14.7479 24.6119L14.7482 24.6118L14.7484 24.6118L14.7486 24.6117L14.7488 24.6116L14.749 24.6116L14.7492 24.6115L14.7494 24.6114L14.7497 24.6114L14.7499 24.6113L14.7501 24.6112L14.7503 24.6111L14.7505 24.6111L14.7507 24.611L14.7509 24.6109L14.7511 24.6109L14.7514 24.6108L14.7516 24.6107L14.7518 24.6107L14.752 24.6106L14.7522 24.6105L14.7524 24.6105L14.7526 24.6104L14.7529 24.6103L14.7531 24.6103L14.7533 24.6102L14.7535 24.6101L14.7537 24.6101L14.7539 24.61L14.7541 24.6099L14.7543 24.6098L14.7546 24.6098L14.7548 24.6097L14.755 24.6096L14.7552 24.6096L14.7554 24.6095L14.7556 24.6094L14.7558 24.6094L14.756 24.6093L14.7563 24.6092L14.7565 24.6092L14.7567 24.6091L14.7569 24.609L14.7571 24.609L14.7573 24.6089L14.7575 24.6088L14.7577 24.6088L14.758 24.6087L14.7582 24.6086L14.7584 24.6085L14.7586 24.6085L14.7588 24.6084L14.759 24.6083L14.7592 24.6083L14.7594 24.6082L14.7597 24.6081L14.7599 24.6081L14.7601 24.608L14.7603 24.6079L14.7605 24.6079L14.7607 24.6078L14.7609 24.6077L14.7611 24.6077L14.7613 24.6076L14.7616 24.6075L14.7618 24.6075L14.762 24.6074L14.7622 24.6073L14.7624 24.6073L14.7626 24.6072L14.7628 24.6071L14.763 24.6071L14.7632 24.607L14.7634 24.6069L14.7637 24.6068L14.7639 24.6068L14.7641 24.6067L14.7643 24.6066L14.7645 24.6066L14.7647 24.6065L14.7649 24.6064L14.7651 24.6064L14.7653 24.6063L14.7656 24.6062L14.7658 24.6062L14.766 24.6061L14.7662 24.606L14.7664 24.606L14.7666 24.6059L14.7668 24.6058L14.767 24.6058L14.7672 24.6057L14.7674 24.6056L14.7676 24.6056L14.7679 24.6055L14.7681 24.6054L14.7683 24.6054L14.7685 24.6053L14.7687 24.6052L14.7689 24.6052L14.7691 24.6051L14.7693 24.605L14.7695 24.605L14.7697 24.6049L14.7699 24.6048L14.7702 24.6048L14.7704 24.6047L14.7706 24.6046L14.7708 24.6046L14.771 24.6045L14.7712 24.6044L14.7714 24.6044L14.7716 24.6043L14.7718 24.6042L14.772 24.6042L14.7722 24.6041L14.7725 24.604L14.7727 24.604L14.7729 24.6039L14.7731 24.6038L14.7733 24.6038L14.7735 24.6037L14.7737 24.6036L14.7739 24.6036L14.7741 24.6035L14.7743 24.6034L14.7745 24.6034L14.7747 24.6033L14.7749 24.6032L14.7752 24.6032L14.7754 24.6031L14.7756 24.603L14.7758 24.603L14.776 24.6029L14.7762 24.6028L14.7764 24.6028L14.7766 24.6027L14.7768 24.6026L14.777 24.6026L14.7772 24.6025L14.7774 24.6024L14.7776 24.6024L14.7778 24.6023L14.7781 24.6022L14.7783 24.6022L14.7785 24.6021L14.7787 24.602L14.7789 24.602L14.7791 24.6019L14.7793 24.6018L14.7795 24.6018L14.7797 24.6017L14.7799 24.6016L14.7801 24.6016L14.7803 24.6015L14.7805 24.6014L14.7807 24.6014L14.7809 24.6013L14.7812 24.6012L14.7814 24.6012L14.7816 24.6011L14.7818 24.601L14.782 24.601L14.7822 24.6009L14.7824 24.6008L14.7826 24.6008L14.7828 24.6007L14.783 24.6006L14.7832 24.6006L14.7834 24.6005L14.7836 24.6004L14.7838 24.6004L14.784 24.6003L14.7842 24.6002L14.7844 24.6002L14.7846 24.6001L14.7849 24.6L14.7851 24.6L14.7853 24.5999L14.7855 24.5998L14.7857 24.5998L14.7859 24.5997L14.7861 24.5996L14.7863 24.5996L14.7865 24.5995L14.7867 24.5994L14.7869 24.5994L14.7871 24.5993L14.7873 24.5992L14.7875 24.5992L14.7877 24.5991L14.7879 24.599L14.7881 24.599L14.7883 24.5989L14.7885 24.5988L14.7887 24.5988L14.7889 24.5987L14.7891 24.5987L14.7894 24.5986L14.7896 24.5985L14.7898 24.5985L14.79 24.5984L14.7902 24.5983L14.7904 24.5983L14.7906 24.5982L14.7908 24.5981L14.791 24.5981L14.7912 24.598L14.7914 24.5979L14.7916 24.5979L14.7918 24.5978L14.792 24.5977L14.7922 24.5977L14.7924 24.5976L14.7926 24.5975L14.7928 24.5975L14.793 24.5974L14.7932 24.5973L14.7934 24.5973L14.7936 24.5972L14.7938 24.5971L14.794 24.5971L14.7942 24.597L14.7944 24.597L14.7946 24.5969L14.7948 24.5968L14.795 24.5968L14.7952 24.5967L14.7954 24.5966L14.7956 24.5966L14.7959 24.5965L14.7961 24.5964L14.7963 24.5964L14.7965 24.5963L14.7967 24.5962L14.7969 24.5962L14.7971 24.5961L14.7973 24.596L14.7975 24.596L14.7977 24.5959L14.7979 24.5958L14.7981 24.5958L14.7983 24.5957L14.7985 24.5956L14.7987 24.5956L14.7989 24.5955L14.7991 24.5955L14.7993 24.5954L14.7995 24.5953L14.7997 24.5953L14.7999 24.5952L14.8001 24.5951L14.8003 24.5951L14.8005 24.595L14.8007 24.5949L14.8009 24.5949L14.8011 24.5948L14.8013 24.5947L14.8015 24.5947L14.8017 24.5946L14.8019 24.5945L14.8021 24.5945L14.8023 24.5944L14.8025 24.5944L14.8027 24.5943L14.8029 24.5942L14.8031 24.5942L14.8033 24.5941L14.8035 24.594L14.8037 24.594L14.8039 24.5939L14.8041 24.5938L14.8043 24.5938L14.8045 24.5937L14.8047 24.5936L14.8049 24.5936L14.8051 24.5935L14.8053 24.5935L14.8055 24.5934L14.8057 24.5933L14.8059 24.5933L14.8061 24.5932L14.8063 24.5931L14.8065 24.5931L14.8067 24.593L14.8069 24.5929L14.8071 24.5929L14.8073 24.5928L14.8075 24.5927L14.8077 24.5927L14.8079 24.5926L14.8081 24.5926L14.8083 24.5925L14.8085 24.5924L14.8087 24.5924L14.8089 24.5923L14.8091 24.5922L14.8093 24.5922L14.8095 24.5921L14.8097 24.592L14.8099 24.592L14.8101 24.5919L14.8103 24.5919L14.8105 24.5918L14.8107 24.5917L14.8109 24.5917L14.8111 24.5916L14.8113 24.5915L14.8115 24.5915L14.8117 24.5914L14.8119 24.5913L14.8121 24.5913L14.8123 24.5912L14.8125 24.5911L14.8127 24.5911L14.8129 24.591L14.8131 24.591L14.8133 24.5909L14.8135 24.5908L14.8137 24.5908L14.8139 24.5907L14.8141 24.5906L14.8143 24.5906L14.8144 24.5905L14.8146 24.5904L14.8148 24.5904L14.815 24.5903L14.8152 24.5903L14.8154 24.5902L14.8156 24.5901L14.8158 24.5901L14.816 24.59L14.8162 24.5899L14.8164 24.5899L14.8166 24.5898L14.8168 24.5898L14.817 24.5897L14.8172 24.5896L14.8174 24.5896L14.8176 24.5895L14.8178 24.5894L14.818 24.5894L14.8182 24.5893L14.8184 24.5892L14.8186 24.5892L14.8188 24.5891L14.819 24.5891L14.8192 24.589L14.8194 24.5889L14.8196 24.5889L14.8198 24.5888L14.82 24.5887L14.8202 24.5887L14.8204 24.5886L14.8206 24.5885C15.0909 24.5016 15.3614 24.4549 15.6306 24.4509M15.6306 24.4509L15.6355 24.77L15.6306 24.4509C15.6306 24.4509 15.6306 24.4509 15.6306 24.4509ZM15.6306 24.4509C15.9964 24.4453 16.3549 24.5189 16.7034 24.6671M16.7034 24.6671C16.7037 24.6672 16.704 24.6673 16.7044 24.6675L16.5794 24.9611L16.7024 24.6666C16.7027 24.6668 16.7031 24.6669 16.7034 24.6671ZM18.3623 30.8134L18.1702 30.9486L18.2421 31.1722L18.6918 32.5701L16.3216 33.3325L15.8742 31.9415L15.8023 31.7179L15.5674 31.7201C14.954 31.7259 14.3477 31.6022 13.7465 31.3452L13.5353 31.2549L13.3826 31.4266L12.388 32.5448L10.5371 30.9469L11.5317 29.8336L11.6883 29.6584L11.5675 29.4569C11.4844 29.3183 11.4073 29.1697 11.3363 29.0106C11.2954 28.9132 11.2566 28.8155 11.2201 28.7175L11.22 28.7172L11.2199 28.7169L11.2198 28.7165L11.2196 28.7161L11.2195 28.7158L11.2194 28.7154L11.2193 28.7151L11.2192 28.7147L11.2191 28.7144L11.219 28.714L11.2188 28.7136L11.2187 28.7133L11.2186 28.7129L11.2185 28.7126L11.2184 28.7122L11.2183 28.7119L11.2181 28.7115L11.218 28.7111L11.2179 28.7108L11.2178 28.7104L11.2177 28.7101L11.2176 28.7097L11.2175 28.7093L11.2173 28.709L11.2172 28.7086L11.2171 28.7083L11.217 28.7079L11.2169 28.7076L11.2168 28.7072L11.2166 28.7068L11.2165 28.7065L11.2164 28.7061L11.2163 28.7058L11.2162 28.7054L11.2161 28.705L11.216 28.7047L11.2158 28.7043L11.2157 28.704L11.2156 28.7036L11.2155 28.7033L11.2154 28.7029L11.2153 28.7025L11.2151 28.7022L11.215 28.7018L11.2149 28.7015L11.2148 28.7011L11.2147 28.7007L11.2146 28.7004L11.2145 28.7L11.2143 28.6997L11.2142 28.6993L11.2141 28.6989L11.214 28.6986L11.2139 28.6982L11.2138 28.6979L11.2136 28.6975L11.2135 28.6971L11.2134 28.6968L11.2133 28.6964L11.2132 28.6961L11.2131 28.6957L11.213 28.6953L11.2128 28.695L11.2127 28.6946L11.2126 28.6943L11.2125 28.6939L11.2124 28.6935L11.2123 28.6932L11.2121 28.6928L11.212 28.6925L11.2119 28.6921L11.2118 28.6917L11.2117 28.6914L11.2116 28.691L11.2114 28.6907L11.2113 28.6903L11.2112 28.6899L11.2111 28.6896L11.211 28.6892L11.2109 28.6888L11.2107 28.6885L11.2106 28.6881L11.2105 28.6878L11.2104 28.6874L11.2103 28.687L11.2102 28.6867L11.21 28.6863L11.2099 28.686L11.2098 28.6856L11.2097 28.6852L11.2096 28.6849L11.2095 28.6845L11.2094 28.6841L11.2092 28.6838L11.2091 28.6834L11.209 28.6831L11.2089 28.6827L11.2088 28.6823L11.2087 28.682L11.2085 28.6816L11.2084 28.6813L11.2083 28.6809L11.2082 28.6805L11.2081 28.6802L11.208 28.6798L11.2078 28.6794L11.2077 28.6791L11.2076 28.6787L11.2075 28.6784L11.2074 28.678L11.2073 28.6776L11.2071 28.6773L11.207 28.6769L11.2069 28.6765L11.2068 28.6762L11.2067 28.6758L11.2066 28.6755L11.2064 28.6751L11.2063 28.6747L11.2062 28.6744L11.2061 28.674L11.206 28.6736L11.2059 28.6733L11.2057 28.6729L11.2056 28.6726L11.2055 28.6722L11.2054 28.6718L11.2053 28.6715L11.2052 28.6711L11.205 28.6707L11.2049 28.6704L11.2048 28.67L11.2047 28.6696L11.2046 28.6693L11.2045 28.6689L11.2043 28.6686L11.2042 28.6682L11.2041 28.6678L11.204 28.6675L11.2039 28.6671L11.2037 28.6667L11.2036 28.6664L11.2035 28.666L11.2034 28.6656L11.2033 28.6653L11.2032 28.6649L11.203 28.6645L11.2029 28.6642L11.2028 28.6638L11.2027 28.6635L11.2026 28.6631L11.2025 28.6627L11.2023 28.6624L11.2022 28.662L11.2021 28.6616L11.202 28.6613L11.2019 28.6609L11.2018 28.6605L11.2016 28.6602L11.2015 28.6598L11.2014 28.6594L11.2013 28.6591L11.2012 28.6587L11.201 28.6583L11.2009 28.658L11.2008 28.6576L11.2007 28.6572L11.2006 28.6569L11.2005 28.6565L11.2003 28.6562L11.2002 28.6558L11.2001 28.6554L11.2 28.6551L11.1999 28.6547L11.1998 28.6543L11.1996 28.654L11.1995 28.6536L11.1994 28.6532L11.1993 28.6529L11.1992 28.6525L11.199 28.6521L11.1989 28.6518L11.1988 28.6514L11.1987 28.651L11.1986 28.6507L11.1985 28.6503L11.1983 28.6499L11.1982 28.6496L11.1981 28.6492L11.198 28.6488L11.1979 28.6485L11.1978 28.6481L11.1976 28.6477L11.1975 28.6474L11.1974 28.647L11.1973 28.6466L11.1972 28.6463L11.197 28.6459L11.1969 28.6455L11.1968 28.6452L11.1967 28.6448L11.1966 28.6444L11.1965 28.6441L11.1963 28.6437L11.1962 28.6433L11.1961 28.643L11.196 28.6426L11.1959 28.6422L11.1957 28.6419L11.1956 28.6415L11.1955 28.6411L11.1954 28.6407L11.1953 28.6404L11.1952 28.64L11.195 28.6396L11.1949 28.6393L11.1948 28.6389L11.1947 28.6385L11.1946 28.6382L11.1944 28.6378L11.1943 28.6374L11.1942 28.6371L11.1941 28.6367L11.194 28.6363L11.1938 28.636L11.1937 28.6356L11.1936 28.6352L11.1935 28.6349L11.1934 28.6345L11.1933 28.6341L11.1931 28.6337L11.193 28.6334L11.1929 28.633L11.1928 28.6326L11.1927 28.6323L11.1925 28.6319L11.1924 28.6315L11.1923 28.6312L11.1922 28.6308L11.1921 28.6304L11.192 28.6301L11.1918 28.6297L11.1917 28.6293L11.1916 28.6289L11.1915 28.6286L11.1914 28.6282L11.1912 28.6278L11.1911 28.6275L11.191 28.6271L11.1909 28.6267L11.1908 28.6264L11.1906 28.626L11.1905 28.6256L11.1904 28.6252L11.1903 28.6249L11.1902 28.6245L11.19 28.6241L11.1899 28.6238L11.1898 28.6234L11.1897 28.623L11.1896 28.6227L11.1895 28.6223L11.1893 28.6219L11.1892 28.6215L11.1891 28.6212L11.189 28.6208L11.1889 28.6204L11.1887 28.6201L11.1886 28.6197L11.1885 28.6193L11.1884 28.6189L11.1883 28.6186L11.1881 28.6182L11.188 28.6178L11.1879 28.6175L11.1878 28.6171L11.1877 28.6167L11.1875 28.6163L11.1874 28.616L11.1873 28.6156L11.1872 28.6152L11.1871 28.6149L11.1869 28.6145L11.1868 28.6141L11.1867 28.6137L11.1866 28.6134L11.1865 28.613L11.1863 28.6126L11.1862 28.6123L11.1861 28.6119L11.186 28.6115L11.1859 28.6111L11.1857 28.6108L11.1856 28.6104L11.1855 28.61L11.1854 28.6097L11.1853 28.6093L11.1851 28.6089L11.185 28.6085L11.1849 28.6082L11.1848 28.6078L11.1847 28.6074L11.1845 28.607L11.1844 28.6067L11.1843 28.6063L11.1842 28.6059L11.1841 28.6056L11.1839 28.6052L11.1838 28.6048L11.1837 28.6044L11.1836 28.6041L11.1835 28.6037L11.1833 28.6033L11.1832 28.6029L11.1831 28.6026L11.183 28.6022L11.1829 28.6018L11.1827 28.6014L11.1826 28.6011L11.1825 28.6007L11.1824 28.6003L11.1823 28.5999L11.1821 28.5996L11.182 28.5992L11.1819 28.5988L11.1818 28.5985L11.1817 28.5981L11.1815 28.5977L11.1814 28.5973L11.1813 28.597L11.1812 28.5966L11.1811 28.5962L11.1809 28.5958L11.1808 28.5955L11.1807 28.5951L11.1806 28.5947L11.1805 28.5943L11.1803 28.594L11.1802 28.5936L11.1801 28.5932L11.18 28.5928L11.1799 28.5925L11.1797 28.5921L11.1796 28.5917L11.1795 28.5913L11.1794 28.591L11.1793 28.5906L11.1791 28.5902L11.179 28.5898L11.1789 28.5895L11.1788 28.5891L11.1786 28.5887L11.1785 28.5883L11.1784 28.5879L11.1783 28.5876L11.1782 28.5872L11.178 28.5868L11.1779 28.5864L11.1778 28.5861L11.1777 28.5857L11.1776 28.5853L11.1774 28.5849L11.1773 28.5846L11.1772 28.5842L11.1771 28.5838L11.177 28.5834L11.1768 28.5831L11.1767 28.5827L11.1766 28.5823L11.1765 28.5819L11.1763 28.5815L11.1762 28.5812L11.1761 28.5808L11.176 28.5804L11.1759 28.58L11.1757 28.5797L11.1756 28.5793L11.1755 28.5789L11.1754 28.5785L11.1753 28.5782L11.1751 28.5778L11.175 28.5774L11.1749 28.577L11.1748 28.5766L11.1746 28.5763L11.1745 28.5759L11.1744 28.5755L11.1743 28.5751L11.1742 28.5748L11.174 28.5744L11.1739 28.574L11.1738 28.5736L11.1737 28.5732L11.1736 28.5729L11.1734 28.5725L11.1733 28.5721L11.1732 28.5717L11.1731 28.5714L11.1729 28.571L11.1728 28.5706L11.1727 28.5702L11.1726 28.5698L11.1725 28.5695L11.1723 28.5691L11.1722 28.5687L11.1721 28.5683L11.172 28.5679L11.1718 28.5676L11.1717 28.5672L11.1716 28.5668L11.1715 28.5664L11.1714 28.566L11.1712 28.5657L11.1711 28.5653L11.171 28.5649L11.1709 28.5645L11.1707 28.5641L11.1706 28.5638L11.1705 28.5634L11.1704 28.563L11.1703 28.5626L11.1701 28.5622L11.17 28.5619L11.1699 28.5615L11.1698 28.5611L11.1696 28.5607L11.1695 28.5603L11.1694 28.56L11.1693 28.5596L11.1692 28.5592L11.169 28.5588L11.1689 28.5584L11.1688 28.5581L11.1687 28.5577L11.1685 28.5573L11.1684 28.5569L11.1683 28.5565L11.1682 28.5562L11.1681 28.5558L11.1679 28.5554L11.1678 28.555L11.1677 28.5546L11.1676 28.5543L11.1674 28.5539L11.1673 28.5535L11.1672 28.5531L11.1671 28.5527L11.167 28.5523L11.1668 28.552L11.1667 28.5516L11.1666 28.5512L11.1665 28.5508L11.1663 28.5504L11.1662 28.5501L11.1661 28.5497L11.166 28.5493L11.1658 28.5489L11.1657 28.5485L11.1656 28.5481L11.1655 28.5478L11.1654 28.5474L11.1652 28.547L11.1651 28.5466L11.165 28.5462L11.1649 28.5458L11.1647 28.5455L11.1646 28.5451L11.1645 28.5447L11.1644 28.5443L11.1642 28.5439L11.1641 28.5435L11.164 28.5432L11.1639 28.5428L11.1638 28.5424L11.1636 28.542L11.1635 28.5416L11.1634 28.5412L11.1633 28.5409L11.1631 28.5405L11.163 28.5401L11.1629 28.5397L11.1628 28.5393L11.1626 28.5389L11.1625 28.5386L11.1624 28.5382L11.1623 28.5378L11.1621 28.5374L11.162 28.537L11.1619 28.5366L11.1618 28.5363L11.1617 28.5359L11.1615 28.5355L11.1614 28.5351C11.0524 28.1961 10.9818 27.8611 10.9489 27.5303L10.926 27.2997L10.6996 27.2501L9.24609 26.9317L9.81832 24.5541L11.2937 24.8797L11.5157 24.9287L11.6345 24.735C11.9718 24.1854 12.389 23.734 12.8865 23.3769L13.0755 23.2412L13.0042 23.0198L12.5568 21.6289L14.9269 20.8665L15.3744 22.2574L15.4456 22.4786L15.6779 22.4788C16.0204 22.4791 16.3613 22.5183 16.7005 22.5965C16.8032 22.622 16.9064 22.6495 17.0099 22.6794C17.17 22.7302 17.3302 22.7882 17.4905 22.8536L17.6981 22.9383L17.8482 22.7716L18.864 21.6437L20.7161 23.2425L19.7153 24.3583L19.5604 24.5311L19.677 24.7318C19.8411 25.0143 19.9781 25.3247 20.0872 25.6639C20.1948 25.9984 20.2638 26.328 20.2953 26.6539L20.3176 26.8849L20.5442 26.9349L22.0076 27.2577L21.4352 29.6356L19.9599 29.3101L19.7367 29.2609L19.6182 29.4563C19.283 30.009 18.8645 30.4602 18.3623 30.8134Z" stroke="black" stroke-width="0.638298"/>
<defs>
<linearGradient id="paint0_linear_798_20669" x1="35.3087" y1="15.4872" x2="16.2973" y2="13.0869" gradientUnits="userSpaceOnUse">
<stop stop-color="#16FF00"/>
<stop offset="1" stop-color="#4DFFC9"/>
<stop offset="1" stop-color="#4DFFC9"/>
</linearGradient>
</defs>
</svg>
