<svg width="36" height="36" viewBox="0 0 36 36" fill="none" xmlns="http://www.w3.org/2000/svg">
<path d="M3.72461 13.1741L10.7932 17.0522L6.56257 24.7871L3.56648 23.1483" stroke="black" stroke-width="0.638298" stroke-linecap="round"/>
<path d="M8.30664 15.6918L4.07601 23.4267" stroke="black" stroke-width="0.638298"/>
<path d="M31.5788 13.3402L24.3134 17.7617L28.8967 25.293L31.8139 23.5176" stroke="black" stroke-width="0.638298" stroke-linecap="round"/>
<path d="M31.3184 23.8197L26.735 16.2884" stroke="black" stroke-width="0.638298"/>
<path d="M19.2854 24.933L24.0561 29.0559C24.5461 29.4793 25.2866 29.4254 25.71 28.9354V28.9354C26.122 28.4587 26.0836 27.7416 25.6231 27.3116L20.9779 22.9745L19.291 21.0443" stroke="black" stroke-width="0.638298" stroke-linecap="round" stroke-linejoin="round"/>
<path d="M17.0315 19.0811C15.5688 18.5719 11.6095 18.743 10.5241 17.7996" stroke="black" stroke-width="0.638298" stroke-linecap="round" stroke-linejoin="round"/>
<path d="M19.2852 24.933L23.6374 28.6942C24.1181 29.1096 24.1711 29.8361 23.7556 30.3169V30.3169C23.3402 30.7976 22.6137 30.8505 22.1329 30.4351L18.2159 27.05" stroke="black" stroke-width="0.638298" stroke-linecap="round"/>
<path d="M18.2168 27.0502L21.6986 30.0591C22.1793 30.4746 22.2323 31.2011 21.8168 31.6818V31.6818C21.4014 32.1625 20.6749 32.2155 20.1941 31.8L17.1475 29.1672" stroke="black" stroke-width="0.638298" stroke-linecap="round"/>
<path d="M17.1484 29.167L19.7526 31.4175C20.2373 31.8364 20.2907 32.5689 19.8718 33.0536V33.0536C19.4578 33.5326 18.7361 33.5912 18.2503 33.1851L17.0429 32.1759" stroke="black" stroke-width="0.638298" stroke-linecap="round"/>
<path d="M28.3824 24.7059L25.7169 27.1818" stroke="black" stroke-width="0.638298"/>
<path d="M10.2397 25.8847L7.15822 23.9508" stroke="black" stroke-width="0.638298"/>
<path d="M22.3977 19.4652L22.341 19.7792L22.3977 19.4652ZM19.5311 21.1758C19.6157 21.0212 19.5589 20.8272 19.4042 20.7426C19.2496 20.6581 19.0556 20.7149 18.9711 20.8695L19.5311 21.1758ZM24.5785 18.5039C24.3525 18.6362 23.9647 18.8308 23.5511 18.9754C23.1251 19.1243 22.7267 19.2003 22.4544 19.1511L22.341 19.7792C22.7848 19.8594 23.3164 19.7336 23.7618 19.5779C24.2196 19.4179 24.6448 19.2048 24.9011 19.0546L24.5785 18.5039ZM22.4544 19.1511C22.0472 19.0776 21.4821 18.847 20.8965 18.6108C20.6123 18.4962 20.3266 18.3821 20.0704 18.2952C19.8213 18.2108 19.5682 18.1407 19.3576 18.133L19.3341 18.7708C19.4448 18.7749 19.622 18.8172 19.8655 18.8998C20.1019 18.9799 20.3712 19.0872 20.6578 19.2028C21.2136 19.4269 21.853 19.6911 22.341 19.7792L22.4544 19.1511ZM19.3576 18.133C18.9868 18.1193 18.4956 18.2094 18.0422 18.3422C17.5889 18.475 17.1266 18.6641 16.8218 18.8756L17.1857 19.4C17.4092 19.2449 17.7967 19.0792 18.2216 18.9548C18.6466 18.8303 19.0622 18.7608 19.3341 18.7708L19.3576 18.133ZM16.8218 18.8756C16.5699 19.0504 16.2203 19.2555 15.8547 19.4696C15.4967 19.6793 15.1228 19.898 14.8463 20.0899L15.2102 20.6143C15.4621 20.4395 15.8118 20.2345 16.1773 20.0203C16.5353 19.8107 16.9092 19.5919 17.1857 19.4L16.8218 18.8756ZM14.8463 20.0899C14.6907 20.1979 14.5368 20.3388 14.422 20.5004C14.31 20.658 14.2127 20.8682 14.2332 21.1025C14.2554 21.3556 14.4074 21.5603 14.6418 21.7027C14.8664 21.8392 15.18 21.9292 15.5854 21.978L15.6618 21.3443C15.2983 21.3005 15.087 21.2263 14.9733 21.1572C14.8693 21.0941 14.8695 21.0519 14.8691 21.0467C14.867 21.0228 14.8761 20.9633 14.9424 20.8701C15.0057 20.7809 15.1017 20.6896 15.2102 20.6143L14.8463 20.0899ZM15.5854 21.978C16.4018 22.0765 17.3122 21.9736 18.0299 21.818C18.3902 21.7398 18.7111 21.6463 18.9558 21.5532C19.0774 21.5069 19.1872 21.4581 19.276 21.4078C19.3202 21.3827 19.365 21.3541 19.4052 21.3216C19.4419 21.2919 19.4938 21.244 19.5311 21.1758L18.9711 20.8695C18.9911 20.8328 19.0116 20.819 19.0037 20.8253C18.9995 20.8288 18.9866 20.8381 18.9613 20.8525C18.9109 20.881 18.8336 20.9168 18.7288 20.9567C18.5206 21.0359 18.2316 21.1211 17.8946 21.1942C17.2174 21.341 16.3831 21.4313 15.6618 21.3443L15.5854 21.978Z" fill="black"/>
<circle cx="17.9998" cy="8.42557" r="7.02128" fill="url(#paint0_linear_798_20681)"/>
<path d="M17.0318 11.0145C17.0318 11.1886 17.173 11.3298 17.3471 11.3298C17.5212 11.3298 17.6624 11.1886 17.6624 11.0145V10.2541H19.1956C19.3936 10.2541 19.5541 10.0935 19.5541 9.89549C19.5541 9.69746 19.3936 9.53692 19.1956 9.53692H17.6624V8.81979H19.0812C19.9505 8.81979 20.6577 8.01553 20.6577 7.02696C20.6577 6.03839 19.9505 5.23413 19.0812 5.23413H17.3471C17.2635 5.23413 17.1833 5.27191 17.1242 5.33915C17.065 5.4064 17.0318 5.4976 17.0318 5.5927V8.10266H16.4445C16.2465 8.10266 16.0859 8.26319 16.0859 8.46122C16.0859 8.65925 16.2465 8.81979 16.4445 8.81979H17.0318V9.53692H16.4445C16.2465 9.53692 16.0859 9.69746 16.0859 9.89549C16.0859 10.0935 16.2465 10.2541 16.4445 10.2541H17.0318V11.0145ZM17.6624 5.95126H19.0812C19.6027 5.95126 20.0271 6.43389 20.0271 7.02696C20.0271 7.62003 19.6027 8.10266 19.0812 8.10266H17.6624V5.95126Z" fill="black"/>
<path fill-rule="evenodd" clip-rule="evenodd" d="M10.9411 27.6759L12.4023 26.2985C12.6287 25.9928 12.6109 25.5595 12.3408 25.273C12.0373 24.951 11.5303 24.936 11.2084 25.2395L9.95435 26.4216C9.63241 26.7251 9.61744 27.2321 9.92091 27.554C10.1911 27.8406 10.6225 27.8839 10.9411 27.6759ZM10.3267 28.433C10.0055 28.3934 9.69576 28.2457 9.45644 27.9919C8.91117 27.4134 8.93807 26.5024 9.51652 25.9572L10.7706 24.775C11.349 24.2298 12.26 24.2567 12.8053 24.8351C13.0322 25.0758 13.16 25.3741 13.1902 25.6797C13.7282 25.4527 14.3734 25.569 14.7974 26.0188C15.1078 26.3481 15.2328 26.7851 15.1762 27.201C15.595 27.1689 16.0241 27.3194 16.3347 27.6488C16.8239 28.1678 16.8525 28.9545 16.4354 29.5046C16.7453 29.5498 17.0426 29.696 17.274 29.9415C17.8193 30.5199 17.7924 31.4309 17.2139 31.9762L15.9599 33.1583C15.3814 33.7036 14.4705 33.6767 13.9252 33.0982C13.637 32.7924 13.5086 32.3937 13.5371 32.0053C13.0511 32.1229 12.5173 31.9836 12.1498 31.5937C11.8394 31.2644 11.7144 30.8274 11.771 30.4114C11.3522 30.4436 10.9231 30.2931 10.6126 29.9636C10.2135 29.5403 10.1209 28.9389 10.3267 28.433ZM11.3432 28.174L11.1105 28.3934C10.7885 28.6969 10.7736 29.2039 11.077 29.5258C11.3805 29.8477 11.8875 29.8627 12.2094 29.5592L14.2995 27.589C14.6215 27.2856 14.6364 26.7786 14.333 26.4566C14.0295 26.1347 13.5225 26.1197 13.2006 26.4232L12.8758 26.7294C12.8359 26.7784 12.7924 26.8253 12.7452 26.8698L11.4911 28.0519C11.4439 28.0964 11.3945 28.1371 11.3432 28.174ZM15.522 32.6938L16.7761 31.5117C17.098 31.2082 17.113 30.7012 16.8095 30.3793C16.5061 30.0574 15.9991 30.0424 15.6772 30.3459L14.4231 31.528C14.1012 31.8315 14.0862 32.3384 14.3897 32.6604C14.6931 32.9823 15.2001 32.9973 15.522 32.6938ZM15.8368 29.2191L13.7467 31.1893C13.4247 31.4927 12.9177 31.4778 12.6143 31.1558C12.3108 30.8339 12.3258 30.3269 12.6477 30.0235L14.7378 28.0532C15.0598 27.7498 15.5667 27.7647 15.8702 28.0867C16.1737 28.4086 16.1587 28.9156 15.8368 29.2191Z" fill="black"/>
<defs>
<linearGradient id="paint0_linear_798_20681" x1="10.9785" y1="8.42557" x2="25.008" y2="8.42557" gradientUnits="userSpaceOnUse">
<stop stop-color="#16FF00"/>
<stop offset="1" stop-color="#4DFFC9"/>
<stop offset="1" stop-color="#4DFFC9"/>
</linearGradient>
</defs>
</svg>
